<svg width="138" height="100" viewBox="0 0 138 100" fill="none" xmlns="http://www.w3.org/2000/svg">
<path d="M48.3 87.4C42.3 87.4 36.9667 85.9667 32.3 83.1C27.7 80.2333 24.0667 76.1 21.4 70.7C18.7333 65.3 17.4 58.7333 17.4 51C17.4 43.2667 18.7333 36.7 21.4 31.3C24.0667 25.9 27.7 21.7667 32.3 18.9C36.9667 16.0333 42.3 14.6 48.3 14.6C54.2333 14.6 59.5 16.0333 64.1 18.9C68.7667 21.7667 72.4333 25.9 75.1 31.3C77.7667 36.7 79.1 43.2667 79.1 51C79.1 58.7333 77.7667 65.3 75.1 70.7C72.4333 76.1 68.7667 80.2333 64.1 83.1C59.5 85.9667 54.2333 87.4 48.3 87.4ZM48.3 71.2C50.4333 71.2 52.3 70.5333 53.9 69.2C55.5667 67.8667 56.8667 65.7333 57.8 62.8C58.7333 59.8 59.2 55.8667 59.2 51C59.2 46.0667 58.7333 42.1333 57.8 39.2C56.8667 36.2667 55.5667 34.1333 53.9 32.8C52.3 31.4667 50.4333 30.8 48.3 30.8C46.1667 30.8 44.2667 31.4667 42.6 32.8C41 34.1333 39.7 36.2667 38.7 39.2C37.7667 42.1333 37.3 46.0667 37.3 51C37.3 55.8667 37.7667 59.8 38.7 62.8C39.7 65.7333 41 67.8667 42.6 69.2C44.2667 70.5333 46.1667 71.2 48.3 71.2ZM95.3734 86V23.1L103.873 31.3H82.3734V16H115.173V86H95.3734Z" fill="#F2933C" fill-opacity="0.15"/>
</svg>
