<svg width="138" height="100" viewBox="0 0 138 100" fill="none" xmlns="http://www.w3.org/2000/svg">
<path d="M39.3 87.4C33.3 87.4 27.9667 85.9667 23.3 83.1C18.7 80.2333 15.0667 76.1 12.4 70.7C9.73333 65.3 8.4 58.7333 8.4 51C8.4 43.2667 9.73333 36.7 12.4 31.3C15.0667 25.9 18.7 21.7667 23.3 18.9C27.9667 16.0333 33.3 14.6 39.3 14.6C45.2333 14.6 50.5 16.0333 55.1 18.9C59.7667 21.7667 63.4333 25.9 66.1 31.3C68.7667 36.7 70.1 43.2667 70.1 51C70.1 58.7333 68.7667 65.3 66.1 70.7C63.4333 76.1 59.7667 80.2333 55.1 83.1C50.5 85.9667 45.2333 87.4 39.3 87.4ZM39.3 71.2C41.4333 71.2 43.3 70.5333 44.9 69.2C46.5667 67.8667 47.8667 65.7333 48.8 62.8C49.7333 59.8 50.2 55.8667 50.2 51C50.2 46.0667 49.7333 42.1333 48.8 39.2C47.8667 36.2667 46.5667 34.1333 44.9 32.8C43.3 31.4667 41.4333 30.8 39.3 30.8C37.1667 30.8 35.2667 31.4667 33.6 32.8C32 34.1333 30.7 36.2667 29.7 39.2C28.7667 42.1333 28.3 46.0667 28.3 51C28.3 55.8667 28.7667 59.8 29.7 62.8C30.7 65.7333 32 67.8667 33.6 69.2C35.2667 70.5333 37.1667 71.2 39.3 71.2ZM75.7734 86V73.6L101.973 49.1C103.84 47.3667 105.207 45.8333 106.073 44.5C107.007 43.1667 107.607 41.9667 107.873 40.9C108.207 39.7667 108.373 38.7333 108.373 37.8C108.373 35.5333 107.607 33.7667 106.073 32.5C104.607 31.2333 102.373 30.6 99.3734 30.6C96.8401 30.6 94.4734 31.1667 92.2734 32.3C90.0734 33.4333 88.2734 35.1333 86.8734 37.4L72.1734 29.2C74.7734 24.8 78.5401 21.2667 83.4734 18.6C88.4068 15.9333 94.3068 14.6 101.173 14.6C106.573 14.6 111.307 15.4667 115.373 17.2C119.44 18.9333 122.607 21.4 124.873 24.6C127.207 27.8 128.373 31.5667 128.373 35.9C128.373 38.1667 128.073 40.4333 127.473 42.7C126.873 44.9 125.707 47.2667 123.973 49.8C122.307 52.2667 119.807 55.0333 116.473 58.1L95.6734 77.3L92.3734 70.3H130.273V86H75.7734Z" fill="#F2933C" fill-opacity="0.15"/>
</svg>
