<svg width="138" height="100" viewBox="0 0 138 100" fill="none" xmlns="http://www.w3.org/2000/svg">
<path d="M39.3 87.4C33.3 87.4 27.9667 85.9667 23.3 83.1C18.7 80.2333 15.0667 76.1 12.4 70.7C9.73333 65.3 8.4 58.7333 8.4 51C8.4 43.2667 9.73333 36.7 12.4 31.3C15.0667 25.9 18.7 21.7667 23.3 18.9C27.9667 16.0333 33.3 14.6 39.3 14.6C45.2333 14.6 50.5 16.0333 55.1 18.9C59.7667 21.7667 63.4333 25.9 66.1 31.3C68.7667 36.7 70.1 43.2667 70.1 51C70.1 58.7333 68.7667 65.3 66.1 70.7C63.4333 76.1 59.7667 80.2333 55.1 83.1C50.5 85.9667 45.2333 87.4 39.3 87.4ZM39.3 71.2C41.4333 71.2 43.3 70.5333 44.9 69.2C46.5667 67.8667 47.8667 65.7333 48.8 62.8C49.7333 59.8 50.2 55.8667 50.2 51C50.2 46.0667 49.7333 42.1333 48.8 39.2C47.8667 36.2667 46.5667 34.1333 44.9 32.8C43.3 31.4667 41.4333 30.8 39.3 30.8C37.1667 30.8 35.2667 31.4667 33.6 32.8C32 34.1333 30.7 36.2667 29.7 39.2C28.7667 42.1333 28.3 46.0667 28.3 51C28.3 55.8667 28.7667 59.8 29.7 62.8C30.7 65.7333 32 67.8667 33.6 69.2C35.2667 70.5333 37.1667 71.2 39.3 71.2ZM99.2805 87.4C94.4138 87.4 89.5471 86.8 84.6805 85.6C79.8805 84.4 75.6805 82.7 72.0805 80.5L79.2805 65.6C82.0805 67.4667 85.1805 68.9 88.5805 69.9C92.0471 70.9 95.4138 71.4 98.6805 71.4C102.08 71.4 104.78 70.7667 106.78 69.5C108.78 68.2333 109.78 66.4333 109.78 64.1C109.78 62.0333 108.947 60.4 107.28 59.2C105.614 57.9333 102.88 57.3 99.0805 57.3H90.7805V44.8L109.58 24.5L111.48 31.3H75.6805V16H126.28V28.4L107.48 48.7L97.7805 43.2H103.18C111.914 43.2 118.514 45.1667 122.98 49.1C127.514 52.9667 129.78 57.9667 129.78 64.1C129.78 68.1 128.68 71.8667 126.48 75.4C124.347 78.9333 121.047 81.8333 116.58 84.1C112.114 86.3 106.347 87.4 99.2805 87.4Z" fill="#F2933C" fill-opacity="0.15"/>
</svg>
