<svg width="138" height="100" viewBox="0 0 138 100" fill="none" xmlns="http://www.w3.org/2000/svg">
<g clip-path="url(#clip0_557_352)">
<path d="M33.3 87.4C27.3 87.4 21.9667 85.9667 17.3 83.1C12.7 80.2333 9.06667 76.1 6.4 70.7C3.73333 65.3 2.4 58.7333 2.4 51C2.4 43.2667 3.73333 36.7 6.4 31.3C9.06667 25.9 12.7 21.7667 17.3 18.9C21.9667 16.0333 27.3 14.6 33.3 14.6C39.2333 14.6 44.5 16.0333 49.1 18.9C53.7667 21.7667 57.4333 25.9 60.1 31.3C62.7667 36.7 64.1 43.2667 64.1 51C64.1 58.7333 62.7667 65.3 60.1 70.7C57.4333 76.1 53.7667 80.2333 49.1 83.1C44.5 85.9667 39.2333 87.4 33.3 87.4ZM33.3 71.2C35.4333 71.2 37.3 70.5333 38.9 69.2C40.5667 67.8667 41.8667 65.7333 42.8 62.8C43.7333 59.8 44.2 55.8667 44.2 51C44.2 46.0667 43.7333 42.1333 42.8 39.2C41.8667 36.2667 40.5667 34.1333 38.9 32.8C37.3 31.4667 35.4333 30.8 33.3 30.8C31.1667 30.8 29.2667 31.4667 27.6 32.8C26 34.1333 24.7 36.2667 23.7 39.2C22.7667 42.1333 22.3 46.0667 22.3 51C22.3 55.8667 22.7667 59.8 23.7 62.8C24.7 65.7333 26 67.8667 27.6 69.2C29.2667 70.5333 31.1667 71.2 33.3 71.2ZM70.157 72.6V59.7L101.557 16H122.057L91.557 59.7L82.157 56.9H136.857V72.6H70.157ZM107.157 86V72.6L107.757 56.9V45H126.457V86H107.157Z" fill="#F2933C" fill-opacity="0.15"/>
</g>
<defs>
<clipPath id="clip0_557_352">
<rect width="138" height="100" fill="white"/>
</clipPath>
</defs>
</svg>
