<svg width="70" height="71" viewBox="0 0 70 71" fill="none" xmlns="http://www.w3.org/2000/svg">
<g filter="url(#filter0_d_533_349)">
<rect x="3" y="2" width="64" height="64" rx="7.11111" fill="white"/>
</g>
<path d="M30.471 24.9289C30.471 23.7513 30.9388 22.622 31.7715 21.7893C32.6041 20.9567 33.7335 20.4889 34.911 20.4889C36.0886 20.4889 37.2179 20.9567 38.0506 21.7893C38.8832 22.622 39.351 23.7513 39.351 24.9289C39.351 26.1065 38.8832 27.2358 38.0506 28.0684C37.2179 28.9011 36.0886 29.3689 34.911 29.3689C33.7335 29.3689 32.6041 28.9011 31.7715 28.0684C30.9388 27.2358 30.471 26.1065 30.471 24.9289ZM34.911 22.7111C34.6198 22.7111 34.3314 22.7685 34.0623 22.8799C33.7932 22.9914 33.5488 23.1547 33.3428 23.3607C33.1369 23.5666 32.9735 23.8111 32.8621 24.0802C32.7506 24.3493 32.6932 24.6376 32.6932 24.9289C32.6932 25.2201 32.7506 25.5085 32.8621 25.7776C32.9735 26.0467 33.1369 26.2912 33.3428 26.4971C33.5488 26.703 33.7932 26.8664 34.0623 26.9779C34.3314 27.0893 34.6198 27.1467 34.911 27.1467C35.4992 27.1467 36.0633 26.913 36.4792 26.4971C36.8951 26.0812 37.1288 25.5171 37.1288 24.9289C37.1288 24.3407 36.8951 23.7766 36.4792 23.3607C36.0633 22.9448 35.4992 22.7111 34.911 22.7111ZM41.5777 26.04C41.5777 25.6023 41.6639 25.1688 41.8314 24.7644C41.9989 24.36 42.2445 23.9925 42.554 23.683C42.8635 23.3735 43.231 23.1279 43.6354 22.9604C44.0398 22.7929 44.4733 22.7067 44.911 22.7067C45.3488 22.7067 45.7822 22.7929 46.1866 22.9604C46.5911 23.1279 46.9585 23.3735 47.268 23.683C47.5776 23.9925 47.8231 24.36 47.9906 24.7644C48.1581 25.1688 48.2444 25.6023 48.2444 26.04C48.2444 26.9241 47.8932 27.7719 47.268 28.397C46.6429 29.0221 45.7951 29.3733 44.911 29.3733C44.027 29.3733 43.1791 29.0221 42.554 28.397C41.9289 27.7719 41.5777 26.9241 41.5777 26.04ZM44.911 24.9289C44.6163 24.9289 44.3337 25.046 44.1254 25.2543C43.917 25.4627 43.7999 25.7453 43.7999 26.04C43.7999 26.3347 43.917 26.6173 44.1254 26.8257C44.3337 27.0341 44.6163 27.1511 44.911 27.1511C45.2057 27.1511 45.4883 27.0341 45.6967 26.8257C45.9051 26.6173 46.0221 26.3347 46.0221 26.04C46.0221 25.7453 45.9051 25.4627 45.6967 25.2543C45.4883 25.046 45.2057 24.9289 44.911 24.9289ZM24.911 22.7067C24.027 22.7067 23.1791 23.0579 22.554 23.683C21.9289 24.3081 21.5777 25.1559 21.5777 26.04C21.5777 26.9241 21.9289 27.7719 22.554 28.397C23.1791 29.0221 24.027 29.3733 24.911 29.3733C25.7951 29.3733 26.6429 29.0221 27.268 28.397C27.8932 27.7719 28.2444 26.9241 28.2444 26.04C28.2444 25.1559 27.8932 24.3081 27.268 23.683C26.6429 23.0579 25.7951 22.7067 24.911 22.7067ZM23.7999 26.04C23.7999 25.7453 23.917 25.4627 24.1254 25.2543C24.3337 25.046 24.6163 24.9289 24.911 24.9289C25.2057 24.9289 25.4883 25.046 25.6967 25.2543C25.9051 25.4627 26.0221 25.7453 26.0221 26.04C26.0221 26.3347 25.9051 26.6173 25.6967 26.8257C25.4883 27.0341 25.2057 27.1511 24.911 27.1511C24.6163 27.1511 24.3337 27.0341 24.1254 26.8257C23.917 26.6173 23.7999 26.3347 23.7999 26.04ZM26.6177 31.5956C26.2266 32.2708 26.0211 33.0375 26.0221 33.8178H21.5777V39.3733C21.5775 39.9261 21.7148 40.4702 21.9772 40.9567C22.2396 41.4432 22.6188 41.8568 23.0808 42.1603C23.5427 42.4638 24.0729 42.6477 24.6236 42.6953C25.1743 42.743 25.7282 42.653 26.2355 42.4333C26.3999 43.1689 26.6577 43.8711 26.991 44.5267C26.1476 44.8672 25.2335 44.9955 24.3289 44.9002C23.4244 44.8049 22.557 44.4889 21.8031 43.9801C21.0492 43.4713 20.4317 42.7851 20.005 41.9819C19.5782 41.1786 19.3552 40.2829 19.3555 39.3733V33.8178C19.3555 33.2284 19.5896 32.6632 20.0063 32.2464C20.4231 31.8297 20.9883 31.5956 21.5777 31.5956H26.6177ZM42.831 44.5267C43.6744 44.8672 44.5886 44.9955 45.4931 44.9002C46.3977 44.8049 47.265 44.4889 48.0189 43.9801C48.7729 43.4713 49.3903 42.7851 49.8171 41.9819C50.2439 41.1786 50.4669 40.2829 50.4666 39.3733V33.8178C50.4666 33.2284 50.2325 32.6632 49.8157 32.2464C49.399 31.8297 48.8337 31.5956 48.2444 31.5956H43.2044C43.5821 32.2489 43.7999 33.0067 43.7999 33.8178H48.2444V39.3733C48.2445 39.9261 48.1073 40.4702 47.8449 40.9567C47.5825 41.4432 47.2032 41.8568 46.7413 42.1603C46.2793 42.4638 45.7491 42.6477 45.1984 42.6953C44.6477 42.743 44.0938 42.653 43.5866 42.4333C43.4199 43.1689 43.1644 43.8711 42.831 44.5267ZM30.4666 31.5933C29.8772 31.5933 29.312 31.8275 28.8952 32.2442C28.4785 32.661 28.2444 33.2262 28.2444 33.8156V40.4844C28.2444 42.2526 28.9467 43.9483 30.197 45.1985C31.4472 46.4487 33.1429 47.1511 34.911 47.1511C36.6791 47.1511 38.3748 46.4487 39.6251 45.1985C40.8753 43.9483 41.5777 42.2526 41.5777 40.4844V33.8178C41.5777 33.2284 41.3436 32.6632 40.9268 32.2464C40.5101 31.8297 39.9448 31.5956 39.3555 31.5956H30.4666V31.5933ZM30.4666 33.8156H39.3555V40.4844C39.3555 41.6632 38.8872 42.7936 38.0537 43.6271C37.2202 44.4606 36.0898 44.9289 34.911 44.9289C33.7323 44.9289 32.6018 44.4606 31.7683 43.6271C30.9348 42.7936 30.4666 41.6632 30.4666 40.4844V33.8178V33.8156Z" fill="#F2933C"/>
<defs>
<filter id="filter0_d_533_349" x="0.155555" y="0.577778" width="69.6889" height="69.6889" filterUnits="userSpaceOnUse" color-interpolation-filters="sRGB">
<feFlood flood-opacity="0" result="BackgroundImageFix"/>
<feColorMatrix in="SourceAlpha" type="matrix" values="0 0 0 0 0 0 0 0 0 0 0 0 0 0 0 0 0 0 127 0" result="hardAlpha"/>
<feOffset dy="1.42222"/>
<feGaussianBlur stdDeviation="1.42222"/>
<feComposite in2="hardAlpha" operator="out"/>
<feColorMatrix type="matrix" values="0 0 0 0 0 0 0 0 0 0 0 0 0 0 0 0 0 0 0.15 0"/>
<feBlend mode="normal" in2="BackgroundImageFix" result="effect1_dropShadow_533_349"/>
<feBlend mode="normal" in="SourceGraphic" in2="effect1_dropShadow_533_349" result="shape"/>
</filter>
</defs>
</svg>
