<svg width="70" height="71" viewBox="0 0 70 71" fill="none" xmlns="http://www.w3.org/2000/svg">
<g filter="url(#filter0_d_533_351)">
<rect x="3" y="2" width="64" height="64" rx="7.11111" fill="white"/>
</g>
<g clip-path="url(#clip0_533_351)">
<rect width="4.03232" height="4.03232" rx="0.594211" transform="matrix(0.703515 -0.71068 0.703515 0.71068 41.4521 34.4052)" fill="#F2933C"/>
<rect width="4.03232" height="4.03232" rx="0.594211" transform="matrix(0.703515 -0.71068 0.703515 0.71068 15.0889 34.4052)" fill="#F2933C"/>
<ellipse cx="33.5715" cy="45" rx="2.43576" ry="2.46057" fill="#F2933C"/>
<ellipse cx="41.882" cy="20.105" rx="2.43576" ry="2.46057" fill="#F2933C"/>
<path fill-rule="evenodd" clip-rule="evenodd" d="M33.9261 34.1449C35.667 34.1449 37.0783 32.8488 37.0783 31.2501C37.0783 29.6513 35.667 28.3553 33.9261 28.3553C32.1853 28.3553 30.774 29.6513 30.774 31.2501C30.774 32.8488 32.1853 34.1449 33.9261 34.1449ZM28.4819 37.1754C27.9088 39.057 28.6311 40.3687 29.1087 40.6581H30.5415V38.3423C31.1146 37.7633 31.5445 38.1011 31.6877 38.3423V40.6581H33.7835V40.6583H36.0759V38.3424C36.2192 38.1012 36.6491 37.7635 37.2222 38.3424V40.6583H38.655C39.1326 40.3688 39.8549 39.0572 39.2818 37.1755C38.9459 36.0727 37.5087 34.7722 37.0789 34.7239L34.6431 38.4872H34.2133V36.1713L34.6431 35.3029H33.9802V35.3028H33.1205L33.5504 36.1712V38.487H33.1205L30.6848 34.7238C30.2549 34.7721 28.8178 36.0726 28.4819 37.1754Z" fill="#F2933C"/>
<path d="M33.8582 50.3556C37.0037 50.3556 40.0786 49.4133 42.694 47.648C45.3094 45.8826 47.3479 43.3734 48.5517 40.4377C49.7554 37.5021 50.0703 34.2717 49.4567 31.1552C48.843 28.0387 47.3283 25.176 45.1041 22.9291C42.8799 20.6822 40.046 19.1521 36.9609 18.5322C33.8758 17.9122 30.6781 18.2304 27.772 19.4464C24.8659 20.6624 22.382 22.7216 20.6344 25.3637C18.8869 28.0057 17.9541 31.112 17.9541 34.2895" stroke="#F2933C" stroke-width="1.63556"/>
<path d="M33.7156 23.7235C31.6186 23.7235 29.5687 24.3517 27.8251 25.5286C26.0815 26.7055 24.7225 28.3783 23.92 30.3354C23.1175 32.2926 22.9075 34.4461 23.3166 36.5238C23.7257 38.6015 24.7356 40.5099 26.2184 42.0079C27.7012 43.5058 29.5904 44.5259 31.6471 44.9392C33.7039 45.3524 35.8357 45.1403 37.7731 44.3297C39.7105 43.519 41.3664 42.1462 42.5315 40.3848C43.6965 38.6234 44.3184 36.5526 44.3184 34.4342" stroke="#F2933C" stroke-width="1.63556"/>
</g>
<defs>
<filter id="filter0_d_533_351" x="0.155555" y="0.577778" width="69.6889" height="69.6889" filterUnits="userSpaceOnUse" color-interpolation-filters="sRGB">
<feFlood flood-opacity="0" result="BackgroundImageFix"/>
<feColorMatrix in="SourceAlpha" type="matrix" values="0 0 0 0 0 0 0 0 0 0 0 0 0 0 0 0 0 0 127 0" result="hardAlpha"/>
<feOffset dy="1.42222"/>
<feGaussianBlur stdDeviation="1.42222"/>
<feComposite in2="hardAlpha" operator="out"/>
<feColorMatrix type="matrix" values="0 0 0 0 0 0 0 0 0 0 0 0 0 0 0 0 0 0 0.15 0"/>
<feBlend mode="normal" in2="BackgroundImageFix" result="effect1_dropShadow_533_351"/>
<feBlend mode="normal" in="SourceGraphic" in2="effect1_dropShadow_533_351" result="shape"/>
</filter>
<clipPath id="clip0_533_351">
<rect width="35.5556" height="35.5556" fill="white" transform="translate(15.0889 16.2222)"/>
</clipPath>
</defs>
</svg>
