<svg width="40" height="40" viewBox="0 0 40 40" fill="none" xmlns="http://www.w3.org/2000/svg">
<g filter="url(#filter0_d_416_285)">
<rect x="4" y="2" width="32" height="32" rx="16" fill="white"/>
<path d="M20 18.25C21.2426 18.25 22.25 17.2426 22.25 16C22.25 14.7574 21.2426 13.75 20 13.75C18.7574 13.75 17.75 14.7574 17.75 16C17.75 17.2426 18.7574 18.25 20 18.25Z" stroke="#F2933C" stroke-width="0.697674" stroke-linecap="round" stroke-linejoin="round"/>
<path d="M20 10C18.4087 10 16.8826 10.6321 15.7574 11.7574C14.6321 12.8826 14 14.4087 14 16C14 17.419 14.3015 18.3475 15.125 19.375L20 25L24.875 19.375C25.6985 18.3475 26 17.419 26 16C26 14.4087 25.3679 12.8826 24.2426 11.7574C23.1174 10.6321 21.5913 10 20 10Z" stroke="#F2933C" stroke-width="0.697674" stroke-linecap="round" stroke-linejoin="round"/>
</g>
<defs>
<filter id="filter0_d_416_285" x="0" y="0" width="40" height="40" filterUnits="userSpaceOnUse" color-interpolation-filters="sRGB">
<feFlood flood-opacity="0" result="BackgroundImageFix"/>
<feColorMatrix in="SourceAlpha" type="matrix" values="0 0 0 0 0 0 0 0 0 0 0 0 0 0 0 0 0 0 127 0" result="hardAlpha"/>
<feOffset dy="2"/>
<feGaussianBlur stdDeviation="2"/>
<feComposite in2="hardAlpha" operator="out"/>
<feColorMatrix type="matrix" values="0 0 0 0 0 0 0 0 0 0 0 0 0 0 0 0 0 0 0.1 0"/>
<feBlend mode="normal" in2="BackgroundImageFix" result="effect1_dropShadow_416_285"/>
<feBlend mode="normal" in="SourceGraphic" in2="effect1_dropShadow_416_285" result="shape"/>
</filter>
</defs>
</svg>
