<svg width="15" height="11" viewBox="0 0 15 11" fill="none" xmlns="http://www.w3.org/2000/svg">
<path d="M4.21484 3.57141L7.42913 5.82141L10.6434 3.57141" stroke="#F2933C" stroke-width="0.65" stroke-linecap="round" stroke-linejoin="round"/>
<path d="M1 8.71429V2.28571C1 1.94472 1.13546 1.6177 1.37658 1.37658C1.6177 1.13546 1.94472 1 2.28571 1H12.5714C12.9124 1 13.2394 1.13546 13.4806 1.37658C13.7217 1.6177 13.8571 1.94472 13.8571 2.28571V8.71429C13.8571 9.05528 13.7217 9.3823 13.4806 9.62342C13.2394 9.86454 12.9124 10 12.5714 10H2.28571C1.94472 10 1.6177 9.86454 1.37658 9.62342C1.13546 9.3823 1 9.05528 1 8.71429Z" stroke="#F2933C" stroke-width="0.65"/>
</svg>
