<svg width="22" height="22" viewBox="0 0 22 22" fill="none" xmlns="http://www.w3.org/2000/svg">
<path d="M11.2393 4.35188C11.1753 4.29069 11.0902 4.25653 11.0017 4.25653C10.9132 4.25653 10.828 4.29069 10.7641 4.35188L2.85352 11.9088C2.81992 11.9409 2.79319 11.9795 2.77495 12.0223C2.75671 12.0651 2.74733 12.1111 2.74738 12.1576L2.74609 19.25C2.74609 19.6147 2.89096 19.9644 3.14882 20.2223C3.40668 20.4801 3.75642 20.625 4.12109 20.625H8.25039C8.43273 20.625 8.6076 20.5526 8.73653 20.4236C8.86546 20.2947 8.93789 20.1198 8.93789 19.9375V14.0938C8.93789 14.0026 8.97411 13.9152 9.03857 13.8507C9.10304 13.7862 9.19047 13.75 9.28164 13.75H12.7191C12.8103 13.75 12.8977 13.7862 12.9622 13.8507C13.0267 13.9152 13.0629 14.0026 13.0629 14.0938V19.9375C13.0629 20.1198 13.1353 20.2947 13.2643 20.4236C13.3932 20.5526 13.5681 20.625 13.7504 20.625H17.878C18.2426 20.625 18.5924 20.4801 18.8502 20.2223C19.1081 19.9644 19.253 19.6147 19.253 19.25V12.1576C19.253 12.1111 19.2436 12.0651 19.2254 12.0223C19.2072 11.9795 19.1804 11.9409 19.1468 11.9088L11.2393 4.35188Z" fill="#F2933C"/>
<path d="M21.0938 10.4908L17.8797 7.41598V2.75C17.8797 2.56766 17.8073 2.3928 17.6784 2.26386C17.5494 2.13493 17.3746 2.0625 17.1922 2.0625H15.1297C14.9474 2.0625 14.7725 2.13493 14.6436 2.26386C14.5147 2.3928 14.4422 2.56766 14.4422 2.75V4.125L11.9535 1.74539C11.7206 1.50992 11.3743 1.375 11 1.375C10.627 1.375 10.2816 1.50992 10.0487 1.74582L0.909235 10.49C0.641969 10.7478 0.608454 11.1719 0.851657 11.4512C0.912729 11.5217 0.987507 11.579 1.07144 11.6197C1.15538 11.6604 1.24671 11.6835 1.33989 11.6878C1.43306 11.6921 1.52613 11.6773 1.61343 11.6445C1.70072 11.6116 1.78042 11.5613 1.84767 11.4967L10.7637 2.97688C10.8277 2.91568 10.9128 2.88152 11.0013 2.88152C11.0898 2.88152 11.175 2.91568 11.2389 2.97688L20.1558 11.4967C20.2871 11.6227 20.4631 11.6914 20.645 11.6879C20.827 11.6843 21.0001 11.6088 21.1265 11.4778C21.3903 11.2045 21.3684 10.7534 21.0938 10.4908Z" fill="#F2933C"/>
</svg>
