<svg width="199" height="44" viewBox="0 0 199 44" fill="none" xmlns="http://www.w3.org/2000/svg">
<path d="M43.0033 21.7995C43.0033 33.2781 33.6092 42.599 22.0017 42.599C10.3941 42.599 1.0001 33.2781 1.0001 21.7995C1.0001 10.321 10.3941 1.0001 22.0017 1.0001C33.6092 1.0001 43.0033 10.321 43.0033 21.7995Z" stroke="black" stroke-width="2.0002"/>
<rect x="7.51018" y="7.44684" width="28.9863" height="28.7056" stroke="black" stroke-width="1.47837"/>
<path d="M8.02539 7.26621L14.5349 20.6813M36.7975 7.26621L30.0276 20.6813M14.5349 20.6813L22.002 34.8793L30.0276 20.6813M14.5349 20.6813L22.002 8.7198L30.0276 20.6813" stroke="black" stroke-width="2.0002"/>
<path d="M7.85547 35.7739V8.19235L21.8672 35.7739H7.85547Z" fill="black"/>
<path d="M36.7998 35.7736L36.7996 8.38443L22.1314 35.7736H36.7998Z" fill="black"/>
<path fill-rule="evenodd" clip-rule="evenodd" d="M49.3682 24.7118V12.9815V1.25111H53.9218H58.4754V12.9815V24.7118H53.9218H49.3682ZM134.041 6.40102C134.041 5.82881 134.287 5.32584 135 4.76736C136.64 3.48303 139.825 4.24627 140.194 5.95575C140.715 8.3682 137.18 9.8317 135 8.12422C134.287 7.56574 134.041 6.83018 134.041 6.40102ZM123.105 24.7124C122.949 24.7018 112.851 5.8351 112.851 5.5427C112.888 5.5427 113.013 5.54302 113.235 5.54358C113.742 5.54487 114.755 5.54744 116.38 5.55043L120.626 5.55844L123.323 10.8305L125.954 16.009L127.093 13.5494C127.826 12.0357 128.64 10.3329 129.291 8.91388C129.707 7.93885 130.184 6.93671 130.428 6.4247C130.498 6.27565 130.55 6.16814 130.574 6.11492C130.618 6.01658 130.651 5.95053 130.682 5.88624C130.727 5.7962 130.769 5.70962 130.841 5.5427H132.072C131.44 6.76401 128.164 13.8502 126.22 18.0549C125.784 18.9969 125.416 19.7943 125.158 20.3487C124.698 21.342 124.326 22.1536 124.032 22.7957C123.429 24.1117 123.153 24.7155 123.105 24.7124ZM141.512 6.40102V5.47583C141.758 5.47583 153.383 5.50122 157.917 5.5427V6.40102H155.599H153.24V15.5564V24.7118H149.425L145.917 24.7124V15.5564V6.40102H141.512ZM77.0591 10.9787V9.83429C77.8573 9.4917 78.9423 8.89805 79.9966 8.32117C80.9742 7.78625 81.9255 7.26576 82.5973 6.97323V9.11903V10.9787H84.9357V12.1231H83.7049H82.5973V22.4945C82.5973 23.5674 82.5973 23.845 84.1426 22.4945C85.0587 21.4131 85.3049 21.4817 85.551 21.8507C85.6741 22.34 84.2881 23.718 83.1213 24.334C81.8191 24.807 79.6217 25.0908 78.4009 24.0502C77.0577 22.8564 77.0579 22.3121 77.059 17.8242C77.0591 17.689 77.0591 17.5501 77.0591 17.4076V12.1231H76.0866H75.2131V10.9787H77.0591ZM134.041 24.7118V17.13V9.54819H137.241L140.194 9.56986V17.13V24.7124L137.241 24.7118H134.041ZM60.1984 24.7118V17.8453V10.9787H63.029H65.8597V11.8419V12.7051L67.1519 11.9403C68.8653 10.9264 71.5202 10.68 72.8469 11.4116C74.4251 12.2822 74.5871 12.972 74.6779 19.2043V24.7118H71.8409H68.9231L69.0122 19.0612C69.1213 12.1377 69.0851 12.0227 67.1509 13.1431L65.8597 13.891V19.3013V24.7118H63.029H60.1984ZM86.5491 20.0468C85.7044 16.5406 87.146 13.0807 90.1046 11.5129C91.564 10.7395 93.9614 10.8071 95.5485 11.6659C97.418 12.6779 98.8427 15.1607 98.8427 17.4069V18.4175H95.1262H91.4584L91.4956 21.003C91.4588 23.539 91.7372 23.5648 93.2531 23.7057L93.3045 23.7104C94.5352 23.5674 95.8545 23.0839 96.8735 21.8507C97.8059 20.7226 98.5965 20.3807 98.5965 21.2488C98.5965 21.9057 97.2403 23.3382 95.8205 24.1808C94.5475 24.9364 92.0019 25.1922 90.4738 24.7181C88.3816 24.2826 87.0003 21.9203 86.5491 20.0468ZM100.812 24.7118V17.8453V10.9787H103.787H106.398V12.1145V13.3602L107.367 12.5014C108.711 11.2768 109.273 10.9787 110.242 10.9787C111.175 10.9787 111.73 11.5295 111.596 12.324C111.525 12.7426 111.258 12.8404 110.16 12.8487C108.654 12.8604 108.147 13.1136 107.124 14.3628L106.398 15.2361V20.1715V24.7118H103.704H100.812ZM94.166 15.1436C94.166 12.9714 94.1657 12.5234 93.6737 12.1231C92.9353 11.6659 92.566 11.694 91.9507 12.2662C91.5404 12.7431 91.4584 13.3628 91.4584 15.2703V17.5592H92.8122H94.166V15.1436ZM163.878 5.59433V24.7673H169.74V20.0508V5.59433H163.878ZM161.54 14.6076L156.243 14.6076V16.2357H161.54V14.6076ZM192.726 6.0033L197.826 24.4642H191.99L189.444 14.0419L192.726 6.0033ZM186.012 22.4453L181.049 13.1871L183.236 6.0033L188.466 16.4367L186.012 22.4453Z" fill="#F2933C"/>
<path d="M49.3682 24.7118H49.0034V25.0766H49.3682V24.7118ZM49.3682 1.25111V0.886343H49.0034V1.25111H49.3682ZM58.4754 1.25111H58.8402V0.886343H58.4754V1.25111ZM58.4754 24.7118V25.0766H58.8402V24.7118H58.4754ZM135 4.76736L135.225 5.05453L135.225 5.0545L135 4.76736ZM140.194 5.95575L140.55 5.87877L140.55 5.87874L140.194 5.95575ZM135 8.12422L135.225 7.83707L135.225 7.83704L135 8.12422ZM112.851 5.5427V5.17793H112.486V5.5427H112.851ZM123.105 24.7124L123.081 25.0764L123.082 25.0764L123.105 24.7124ZM113.235 5.54358L113.234 5.90835L113.235 5.54358ZM116.38 5.55043L116.381 5.18566H116.381L116.38 5.55043ZM120.626 5.55844L120.951 5.39231L120.85 5.19409L120.627 5.19367L120.626 5.55844ZM123.323 10.8305L123.648 10.6653L123.648 10.6644L123.323 10.8305ZM125.954 16.009L125.629 16.1743L125.969 16.8442L126.285 16.1624L125.954 16.009ZM127.093 13.5494L126.765 13.3905L126.762 13.3961L127.093 13.5494ZM129.291 8.91388L129.623 9.06606L129.626 9.05697L129.291 8.91388ZM130.428 6.4247L130.757 6.58149V6.58149L130.428 6.4247ZM130.574 6.11492L130.242 5.96424V5.96424L130.574 6.11492ZM130.682 5.88624L131.01 6.04717L131.01 6.04715L130.682 5.88624ZM130.841 5.5427V5.17793H130.601L130.506 5.39856L130.841 5.5427ZM132.072 5.5427L132.396 5.71027L132.671 5.17793H132.072V5.5427ZM126.22 18.0549L126.551 18.208L126.22 18.0549ZM125.158 20.3487L124.827 20.1952V20.1952L125.158 20.3487ZM124.032 22.7957L123.7 22.6438L124.032 22.7957ZM141.512 5.47583V5.11106H141.147V5.47583H141.512ZM141.512 6.40102H141.147V6.76579H141.512V6.40102ZM157.917 5.5427H158.281V5.18125L157.92 5.17795L157.917 5.5427ZM157.917 6.40102V6.76579H158.281V6.40102H157.917ZM153.24 6.40102V6.03625H152.875V6.40102H153.24ZM153.24 24.7118V25.0766H153.605V24.7118H153.24ZM149.425 24.7118V24.347H149.425L149.425 24.7118ZM145.917 24.7124H145.553V25.0773L145.917 25.0772L145.917 24.7124ZM145.917 6.40102H146.282V6.03625H145.917V6.40102ZM77.0591 9.83429L76.9152 9.49909L76.6943 9.5939V9.83429H77.0591ZM77.0591 10.9787V11.3435H77.4239V10.9787H77.0591ZM79.9966 8.32117L79.8215 8.00117L79.9966 8.32117ZM82.5973 6.97323H82.9621V6.41656L82.4517 6.63879L82.5973 6.97323ZM82.5973 10.9787H82.2325V11.3435H82.5973V10.9787ZM84.9357 10.9787H85.3004V10.6139H84.9357V10.9787ZM84.9357 12.1231V12.4879H85.3004V12.1231H84.9357ZM82.5973 12.1231V11.7584H82.2325V12.1231H82.5973ZM84.1426 22.4945L84.3826 22.7691L84.4032 22.7511L84.4209 22.7303L84.1426 22.4945ZM85.551 21.8507L85.9048 21.7618L85.8894 21.7007L85.8545 21.6483L85.551 21.8507ZM83.1213 24.334L83.2459 24.6769L83.2695 24.6683L83.2917 24.6566L83.1213 24.334ZM78.4009 24.0502L78.1585 24.3229L78.1642 24.3278L78.4009 24.0502ZM77.059 17.8242L77.4238 17.8243L77.059 17.8242ZM77.0591 12.1231H77.4239V11.7584H77.0591V12.1231ZM75.2131 12.1231H74.8483V12.4879H75.2131V12.1231ZM75.2131 10.9787V10.6139H74.8483V10.9787H75.2131ZM134.041 24.7118H133.676V25.0766H134.041V24.7118ZM134.041 9.54819V9.18342H133.676V9.54819H134.041ZM137.241 9.54819L137.243 9.18342H137.241V9.54819ZM140.194 9.56986H140.559V9.20776L140.197 9.2051L140.194 9.56986ZM140.194 24.7124L140.194 25.0772L140.559 25.0773V24.7124H140.194ZM137.241 24.7118L137.241 24.347H137.241V24.7118ZM60.1984 24.7118H59.8336V25.0766H60.1984V24.7118ZM60.1984 10.9787V10.6139H59.8336V10.9787H60.1984ZM65.8597 10.9787H66.2244V10.6139H65.8597V10.9787ZM65.8597 12.7051H65.4949V13.3448L66.0454 13.019L65.8597 12.7051ZM67.1519 11.9403L66.9661 11.6264L66.9661 11.6264L67.1519 11.9403ZM72.8469 11.4116L73.0231 11.0922L73.023 11.0922L72.8469 11.4116ZM74.6779 19.2043H75.0428L75.0427 19.1989L74.6779 19.2043ZM74.6779 24.7118V25.0766H75.0427V24.7118H74.6779ZM68.9231 24.7118L68.5584 24.7061L68.5526 25.0766H68.9231V24.7118ZM69.0122 19.0612L69.377 19.067V19.067L69.0122 19.0612ZM67.1509 13.1431L67.3337 13.4588L67.3338 13.4587L67.1509 13.1431ZM65.8597 13.891L65.6768 13.5753L65.4949 13.6807V13.891H65.8597ZM65.8597 24.7118V25.0766H66.2244V24.7118H65.8597ZM90.1046 11.5129L89.9338 11.1906L89.9338 11.1906L90.1046 11.5129ZM86.5491 20.0468L86.9037 19.9614L86.9037 19.9614L86.5491 20.0468ZM95.5485 11.6659L95.7222 11.3452L95.7222 11.3451L95.5485 11.6659ZM98.8427 18.4175V18.7822H99.2074V18.4175H98.8427ZM91.4584 18.4175V18.0527H91.0884L91.0937 18.4227L91.4584 18.4175ZM91.4956 21.003L91.8605 21.0083L91.8603 20.9978L91.4956 21.003ZM93.2531 23.7057L93.2868 23.3424L93.2868 23.3424L93.2531 23.7057ZM93.3045 23.7104L93.2707 24.0736L93.3087 24.0772L93.3466 24.0728L93.3045 23.7104ZM96.8735 21.8507L96.5924 21.6184L96.5924 21.6184L96.8735 21.8507ZM95.8205 24.1808L95.6344 23.8671L95.6344 23.8671L95.8205 24.1808ZM90.4738 24.7181L90.5819 24.3697L90.5653 24.3645L90.5482 24.361L90.4738 24.7181ZM100.812 24.7118H100.447V25.0766H100.812V24.7118ZM100.812 10.9787V10.6139H100.447V10.9787H100.812ZM106.398 10.9787H106.763V10.6139H106.398V10.9787ZM106.398 13.3602H106.033V14.171L106.64 13.6331L106.398 13.3602ZM107.367 12.5014L107.609 12.7744L107.613 12.771L107.367 12.5014ZM111.596 12.324L111.956 12.3847L111.956 12.3846L111.596 12.324ZM110.16 12.8487L110.158 12.4839H110.157L110.16 12.8487ZM107.124 14.3628L107.405 14.5959L107.406 14.5939L107.124 14.3628ZM106.398 15.2361L106.118 15.003L106.033 15.1043V15.2361H106.398ZM106.398 24.7118V25.0766H106.763V24.7118H106.398ZM93.6737 12.1231L93.9039 11.8402L93.8857 11.8254L93.8657 11.813L93.6737 12.1231ZM91.9507 12.2662L91.7023 11.9991L91.6874 12.0129L91.6742 12.0283L91.9507 12.2662ZM91.4584 17.5592H91.0936V17.9239H91.4584V17.5592ZM94.166 17.5592V17.9239H94.5307V17.5592H94.166ZM163.878 24.7673H163.514V25.1321H163.878V24.7673ZM163.878 5.59433V5.22956H163.514V5.59433H163.878ZM169.74 24.7673V25.1321H170.104V24.7673H169.74ZM169.74 5.59433H170.104V5.22956H169.74V5.59433ZM156.243 14.6076V14.2428H155.879V14.6076H156.243ZM161.54 14.6076H161.905V14.2428L161.54 14.2428V14.6076ZM156.243 16.2357H155.879V16.6005H156.243V16.2357ZM161.54 16.2357V16.6005H161.905V16.2357H161.54ZM197.826 24.4642V24.829H198.305L198.178 24.3671L197.826 24.4642ZM192.726 6.0033L193.078 5.90617L192.793 4.87498L192.389 5.86541L192.726 6.0033ZM191.99 24.4642L191.636 24.5508L191.704 24.829H191.99V24.4642ZM189.444 14.0419L189.106 13.904L189.061 14.0135L189.09 14.1285L189.444 14.0419ZM181.049 13.1871L180.7 13.0809L180.656 13.2259L180.727 13.3595L181.049 13.1871ZM186.012 22.4453L185.691 22.6176L186.057 23.3007L186.35 22.5832L186.012 22.4453ZM183.236 6.0033L183.562 5.83983L183.153 5.02363L182.887 5.89707L183.236 6.0033ZM188.466 16.4367L188.804 16.5746L188.866 16.4212L188.792 16.2732L188.466 16.4367ZM189.444 14.0419L189.782 14.1798L189.826 14.0702L189.798 13.9552L189.444 14.0419ZM181.047 13.184L181.368 13.011L180.942 12.2185L180.696 13.0845L181.047 13.184ZM181.049 13.1871L181.398 13.2933L181.442 13.148L181.37 13.0142L181.049 13.1871ZM49.0034 12.9815V24.7118H49.7329V12.9815H49.0034ZM49.0034 1.25111V12.9815H49.7329V1.25111H49.0034ZM53.9218 0.886343H49.3682V1.61589H53.9218V0.886343ZM58.4754 0.886343H53.9218V1.61589H58.4754V0.886343ZM58.8402 12.9815V1.25111H58.1106V12.9815H58.8402ZM58.8402 24.7118V12.9815H58.1106V24.7118H58.8402ZM53.9218 25.0766H58.4754V24.347H53.9218V25.0766ZM49.3682 25.0766H53.9218V24.347H49.3682V25.0766ZM134.775 4.48018C134.002 5.08633 133.676 5.68594 133.676 6.40102H134.406C134.406 5.97167 134.573 5.56534 135.225 5.05453L134.775 4.48018ZM140.55 5.87874C140.322 4.8191 139.258 4.14035 138.156 3.88361C137.038 3.6231 135.708 3.74975 134.775 4.48022L135.225 5.0545C135.932 4.50063 137.014 4.36674 137.991 4.59413C138.983 4.82531 139.697 5.38292 139.837 6.03276L140.55 5.87874ZM134.775 8.41137C135.983 9.3572 137.554 9.41928 138.75 8.92173C139.945 8.42428 140.86 7.31198 140.55 5.87877L139.837 6.03273C140.049 7.01197 139.456 7.83764 138.47 8.24818C137.483 8.65862 136.198 8.59872 135.225 7.83707L134.775 8.41137ZM133.676 6.40102C133.676 6.94381 133.975 7.7847 134.775 8.41139L135.225 7.83704C134.599 7.34677 134.406 6.71655 134.406 6.40102H133.676ZM112.486 5.5427C112.486 5.59578 112.498 5.63813 112.5 5.64795C112.505 5.66574 112.51 5.68163 112.515 5.69334C112.523 5.71719 112.534 5.74299 112.545 5.76796C112.567 5.81891 112.597 5.88529 112.635 5.96384C112.711 6.12192 112.821 6.34254 112.96 6.6152C113.237 7.16118 113.633 7.92382 114.108 8.82925C115.058 10.6405 116.326 13.0276 117.598 15.4053C118.87 17.7831 120.148 20.1526 121.117 21.9286C121.602 22.8164 122.01 23.557 122.302 24.0765C122.448 24.3359 122.566 24.5423 122.651 24.685C122.693 24.7557 122.729 24.8147 122.758 24.8577C122.771 24.8783 122.787 24.9018 122.804 24.9229C122.811 24.9325 122.826 24.9506 122.845 24.9697C122.855 24.9789 122.873 24.9963 122.899 25.0139C122.917 25.0256 122.983 25.0697 123.081 25.0764L123.13 24.3485C123.227 24.355 123.291 24.3985 123.307 24.409C123.331 24.4253 123.348 24.4409 123.355 24.4478C123.37 24.4621 123.378 24.4733 123.378 24.4736C123.38 24.4762 123.377 24.4724 123.367 24.4569C123.348 24.428 123.319 24.3804 123.278 24.3122C123.198 24.1772 123.083 23.9769 122.938 23.7188C122.648 23.2034 122.242 22.4661 121.757 21.579C120.789 19.8054 119.513 17.4379 118.241 15.0611C116.969 12.6844 115.703 10.2993 114.754 8.49043C114.28 7.58582 113.885 6.82644 113.61 6.28464C113.472 6.0134 113.365 5.7987 113.293 5.64827C113.257 5.57258 113.231 5.51642 113.214 5.47882C113.206 5.45952 113.202 5.44954 113.201 5.4464C113.201 5.44461 113.202 5.44921 113.205 5.45792C113.205 5.45868 113.215 5.49419 113.215 5.5427H112.486ZM113.236 5.17881C113.015 5.17825 112.889 5.17793 112.851 5.17793V5.90747C112.887 5.90747 113.012 5.90779 113.234 5.90835L113.236 5.17881ZM116.381 5.18566C114.756 5.18267 113.743 5.1801 113.236 5.17881L113.234 5.90835C113.741 5.90964 114.754 5.91221 116.38 5.9152L116.381 5.18566ZM120.627 5.19367L116.381 5.18566L116.38 5.9152L120.626 5.92321L120.627 5.19367ZM123.648 10.6644L120.951 5.39231L120.301 5.72457L122.998 10.9966L123.648 10.6644ZM126.279 15.8438L123.648 10.6653L122.998 10.9957L125.629 16.1743L126.279 15.8438ZM126.762 13.3961L125.623 15.8557L126.285 16.1624L127.424 13.7027L126.762 13.3961ZM128.959 8.76176C128.31 10.1774 127.497 11.8775 126.765 13.3905L127.422 13.7083C128.155 12.194 128.97 10.4885 129.622 9.066L128.959 8.76176ZM130.098 6.26792C129.855 6.77948 129.375 7.78795 128.955 8.77079L129.626 9.05697C130.039 8.08976 130.513 7.09395 130.757 6.58149L130.098 6.26792ZM130.242 5.96424C130.219 6.0135 130.17 6.11674 130.098 6.26792L130.757 6.58149C130.827 6.43456 130.88 6.32277 130.906 6.26559L130.242 5.96424ZM130.355 5.7253C130.323 5.79031 130.289 5.86053 130.242 5.96424L130.906 6.26559C130.948 6.17264 130.979 6.11075 131.01 6.04717L130.355 5.7253ZM130.506 5.39856C130.438 5.55747 130.398 5.63789 130.355 5.72532L131.01 6.04715C131.055 5.9545 131.101 5.86177 131.176 5.68684L130.506 5.39856ZM132.072 5.17793H130.841V5.90747H132.072V5.17793ZM126.551 18.208C128.498 13.9959 131.769 6.9221 132.396 5.71027L131.748 5.37513C131.111 6.60591 127.829 13.7044 125.889 17.9019L126.551 18.208ZM125.489 20.5021C125.747 19.9475 126.115 19.1499 126.551 18.208L125.889 17.9019C125.453 18.8439 125.084 19.641 124.827 20.1952L125.489 20.5021ZM124.364 22.9476C124.658 22.3055 125.029 21.4946 125.489 20.5021L124.827 20.1952C124.366 21.1894 123.994 22.0017 123.7 22.6438L124.364 22.9476ZM123.082 25.0764C123.181 25.0829 123.256 25.0481 123.291 25.0282C123.328 25.0067 123.355 24.983 123.37 24.9689C123.399 24.9406 123.42 24.9118 123.432 24.8952C123.458 24.859 123.483 24.8159 123.505 24.7743C123.553 24.6881 123.614 24.564 123.69 24.4058C123.842 24.0875 124.063 23.6042 124.364 22.9476L123.7 22.6438C123.398 23.3031 123.18 23.7798 123.031 24.0916C122.956 24.2484 122.902 24.357 122.865 24.4242C122.856 24.4405 122.849 24.453 122.844 24.4621C122.838 24.4717 122.836 24.4752 122.836 24.4747C122.836 24.4742 122.838 24.4713 122.842 24.4667C122.846 24.4625 122.853 24.4537 122.864 24.4428C122.874 24.4333 122.897 24.4129 122.93 24.3937C122.962 24.376 123.033 24.3421 123.129 24.3484L123.082 25.0764ZM141.147 5.47583V6.40102H141.877V5.47583H141.147ZM157.92 5.17795C153.385 5.13645 141.758 5.11106 141.512 5.11106V5.8406C141.758 5.8406 153.382 5.86599 157.913 5.90746L157.92 5.17795ZM158.281 6.40102V5.5427H157.552V6.40102H158.281ZM155.599 6.76579H157.917V6.03625H155.599V6.76579ZM153.24 6.76579H155.599V6.03625H153.24V6.76579ZM153.605 15.5564V6.40102H152.875V15.5564H153.605ZM153.605 24.7118V15.5564H152.875V24.7118H153.605ZM149.425 25.0766H153.24V24.347H149.425V25.0766ZM145.917 25.0772L149.425 25.0766L149.425 24.347L145.917 24.3477L145.917 25.0772ZM145.553 15.5564V24.7124H146.282V15.5564H145.553ZM145.553 6.40102V15.5564H146.282V6.40102H145.553ZM141.512 6.76579H145.917V6.03625H141.512V6.76579ZM76.6943 9.83429V10.9787H77.4239V9.83429H76.6943ZM79.8215 8.00117C78.7609 8.58149 77.6937 9.16497 76.9152 9.49909L77.203 10.1695C78.0209 9.81843 79.1237 9.21461 80.1717 8.64117L79.8215 8.00117ZM82.4517 6.63879C81.7611 6.93948 80.7926 7.4698 79.8215 8.00117L80.1717 8.64117C81.1558 8.10271 82.0898 7.59204 82.7429 7.30768L82.4517 6.63879ZM82.9621 9.11903V6.97323H82.2325V9.11903H82.9621ZM82.9621 10.9787V9.11903H82.2325V10.9787H82.9621ZM84.9357 10.6139H82.5973V11.3435H84.9357V10.6139ZM85.3004 12.1231V10.9787H84.5709V12.1231H85.3004ZM83.7049 12.4879H84.9357V11.7584H83.7049V12.4879ZM82.5973 12.4879H83.7049V11.7584H82.5973V12.4879ZM82.9621 22.4945V12.1231H82.2325V22.4945H82.9621ZM83.9025 22.2198C83.5174 22.5564 83.242 22.7794 83.0447 22.913C82.9459 22.98 82.879 23.0159 82.8366 23.0332C82.7898 23.0523 82.8053 23.0353 82.855 23.0442C82.926 23.057 82.973 23.1036 82.9909 23.1333C83.0001 23.1484 82.9912 23.1412 82.9819 23.0812C82.9631 22.9599 82.9621 22.7754 82.9621 22.4945H82.2325C82.2325 22.75 82.2315 23.0025 82.261 23.1929C82.2758 23.2886 82.3032 23.4058 82.3667 23.5108C82.4389 23.6303 82.5583 23.7322 82.726 23.7623C82.8722 23.7885 83.0084 23.7511 83.1125 23.7085C83.2211 23.6642 83.3353 23.5974 83.4537 23.5171C83.691 23.3565 83.9951 23.1078 84.3826 22.7691L83.9025 22.2198ZM85.8545 21.6483C85.7868 21.5469 85.6867 21.413 85.5379 21.3274C85.3639 21.2273 85.1699 21.2176 84.9783 21.2841C84.807 21.3437 84.6397 21.4627 84.4708 21.6144C84.2975 21.77 84.0983 21.9825 83.8643 22.2587L84.4209 22.7303C84.645 22.4658 84.82 22.2813 84.9583 22.1572C85.1008 22.0291 85.1823 21.9856 85.2178 21.9733C85.233 21.968 85.2039 21.977 85.174 21.9597C85.1692 21.957 85.1921 21.97 85.2475 22.0532L85.8545 21.6483ZM83.2917 24.6566C83.9139 24.328 84.5814 23.8051 85.0793 23.3013C85.3284 23.0492 85.546 22.791 85.6959 22.5531C85.7708 22.4344 85.8353 22.3105 85.8761 22.1874C85.9153 22.0688 85.9439 21.9173 85.9048 21.7618L85.1973 21.9397C85.1889 21.9065 85.201 21.9051 85.1835 21.9579C85.1675 22.0062 85.1348 22.0751 85.0788 22.1641C84.967 22.3414 84.7883 22.5578 84.5604 22.7885C84.1043 23.25 83.4955 23.724 82.951 24.0114L83.2917 24.6566ZM78.1642 24.3278C78.8681 24.9278 79.8237 25.1245 80.7306 25.1245C81.6435 25.1245 82.5606 24.9258 83.2459 24.6769L82.9968 23.9912C82.3799 24.2152 81.5472 24.395 80.7306 24.395C79.908 24.395 79.1545 24.2133 78.6375 23.7726L78.1642 24.3278ZM76.6943 17.8241C76.6937 20.0472 76.6915 21.3524 76.868 22.2434C76.9592 22.7036 77.1002 23.0694 77.319 23.4044C77.5345 23.7341 77.8149 24.0174 78.1585 24.3228L78.6432 23.7776C78.3153 23.4861 78.0921 23.2537 77.9298 23.0053C77.771 22.7623 77.6602 22.4877 77.5837 22.1016C77.4248 21.3 77.4232 20.0891 77.4238 17.8243L76.6943 17.8241ZM76.6943 17.4076C76.6943 17.5501 76.6943 17.6889 76.6943 17.8241L77.4238 17.8243C77.4239 17.6891 77.4239 17.5502 77.4239 17.4076H76.6943ZM76.6943 12.1231V17.4076H77.4239V12.1231H76.6943ZM76.0866 12.4879H77.0591V11.7584H76.0866V12.4879ZM75.2131 12.4879H76.0866V11.7584H75.2131V12.4879ZM74.8483 10.9787V12.1231H75.5778V10.9787H74.8483ZM77.0591 10.6139H75.2131V11.3435H77.0591V10.6139ZM133.676 17.13V24.7118H134.406V17.13H133.676ZM133.676 9.54819V17.13H134.406V9.54819H133.676ZM137.241 9.18342H134.041V9.91296H137.241V9.18342ZM140.197 9.2051L137.243 9.18343L137.238 9.91295L140.191 9.93462L140.197 9.2051ZM140.559 17.13V9.56986H139.829V17.13H140.559ZM140.559 24.7124V17.13H139.829V24.7124H140.559ZM137.241 25.0766L140.194 25.0772L140.194 24.3477L137.241 24.347L137.241 25.0766ZM134.041 25.0766H137.241V24.347H134.041V25.0766ZM59.8336 17.8453V24.7118H60.5632V17.8453H59.8336ZM59.8336 10.9787V17.8453H60.5632V10.9787H59.8336ZM63.029 10.6139H60.1984V11.3435H63.029V10.6139ZM65.8597 10.6139H63.029V11.3435H65.8597V10.6139ZM66.2244 11.8419V10.9787H65.4949V11.8419H66.2244ZM66.2244 12.7051V11.8419H65.4949V12.7051H66.2244ZM66.9661 11.6264L65.6739 12.3912L66.0454 13.019L67.3377 12.2542L66.9661 11.6264ZM73.023 11.0922C72.2687 10.6762 71.1888 10.5581 70.1107 10.6582C69.0237 10.7591 67.8775 11.0871 66.9661 11.6264L67.3377 12.2542C68.1397 11.7796 69.1777 11.4775 70.1781 11.3846C71.1875 11.2909 72.0984 11.4154 72.6707 11.731L73.023 11.0922ZM75.0427 19.1989C74.9975 16.0999 74.9357 14.322 74.6753 13.2139C74.542 12.6464 74.3511 12.2263 74.0656 11.8857C73.7832 11.549 73.4298 11.3165 73.0231 11.0922L72.6707 11.731C73.0532 11.942 73.3118 12.1222 73.5065 12.3545C73.6981 12.5829 73.8493 12.8879 73.9651 13.3808C74.203 14.3933 74.2675 16.0764 74.3132 19.2096L75.0427 19.1989ZM75.0427 24.7118V19.2043H74.3132V24.7118H75.0427ZM71.8409 25.0766H74.6779V24.347H71.8409V25.0766ZM68.9231 25.0766H71.8409V24.347H68.9231V25.0766ZM68.6475 19.0555L68.5584 24.7061L69.2879 24.7176L69.377 19.067L68.6475 19.0555ZM67.3338 13.4587C67.5768 13.318 67.7781 13.2037 67.9505 13.1197C68.1266 13.0339 68.2448 12.9939 68.324 12.9827C68.3603 12.9776 68.3789 12.9801 68.3856 12.9815C68.3901 12.9825 68.3914 12.9832 68.3944 12.9855C68.4052 12.9939 68.4505 13.0384 68.4998 13.1951C68.6004 13.5148 68.6563 14.0921 68.6747 15.065C68.6928 16.0242 68.6748 17.3224 68.6475 19.0555L69.377 19.067C69.4042 17.3382 69.4225 16.0258 69.4041 15.0512C69.386 14.0903 69.3324 13.4107 69.1958 12.9763C69.1265 12.756 69.0213 12.5491 68.8428 12.41C68.6503 12.26 68.4287 12.2312 68.2221 12.2603C68.0276 12.2878 67.8266 12.3685 67.6309 12.4638C67.4316 12.561 67.2086 12.6881 66.9681 12.8275L67.3338 13.4587ZM66.0425 14.2066L67.3337 13.4588L66.9681 12.8275L65.6768 13.5753L66.0425 14.2066ZM66.2244 19.3013V13.891H65.4949V19.3013H66.2244ZM66.2244 24.7118V19.3013H65.4949V24.7118H66.2244ZM63.029 25.0766H65.8597V24.347H63.029V25.0766ZM60.1984 25.0766H63.029V24.347H60.1984V25.0766ZM89.9338 11.1906C86.8127 12.8446 85.3149 16.4816 86.1945 20.1323L86.9037 19.9614C86.0938 16.5996 87.4794 13.3169 90.2754 11.8352L89.9338 11.1906ZM95.7222 11.3451C94.8689 10.8834 93.8145 10.6415 92.7889 10.6127C91.7653 10.5839 90.7342 10.7664 89.9338 11.1906L90.2754 11.8352C90.9344 11.486 91.8317 11.3156 92.7684 11.3419C93.7032 11.3682 94.641 11.5896 95.3749 11.9868L95.7222 11.3451ZM99.2074 17.4069C99.2074 16.2103 98.8293 14.9661 98.213 13.8921C97.5972 12.8189 96.7289 11.8901 95.7222 11.3452L95.3749 11.9867C96.2376 12.4537 97.0164 13.2724 97.5803 14.2551C98.1437 15.2371 98.4779 16.3574 98.4779 17.4069H99.2074ZM99.2074 18.4175V17.4069H98.4779V18.4175H99.2074ZM95.1262 18.7822H98.8427V18.0527H95.1262V18.7822ZM91.4584 18.7822H95.1262V18.0527H91.4584V18.7822ZM91.8603 20.9978L91.8231 18.4122L91.0937 18.4227L91.1308 21.0083L91.8603 20.9978ZM93.2868 23.3424C92.8968 23.3062 92.629 23.2803 92.4253 23.2275C92.2355 23.1783 92.1456 23.1163 92.0844 23.0344C92.0134 22.9392 91.9453 22.7688 91.9035 22.4306C91.8622 22.096 91.8512 21.6401 91.8603 21.0083L91.1308 20.9977C91.1216 21.6339 91.1316 22.1323 91.1795 22.5201C91.2269 22.9044 91.3162 23.2247 91.4997 23.4706C91.693 23.7297 91.9546 23.8591 92.2423 23.9337C92.5159 24.0046 92.8514 24.0347 93.2193 24.0689L93.2868 23.3424ZM93.3382 23.3472L93.2868 23.3424L93.2193 24.0689L93.2707 24.0736L93.3382 23.3472ZM96.5924 21.6184C95.6492 22.7597 94.4278 23.2126 93.2624 23.3481L93.3466 24.0728C94.6426 23.9221 96.0598 23.408 97.1547 22.0831L96.5924 21.6184ZM98.9613 21.2488C98.9613 20.9991 98.9082 20.7143 98.6891 20.5354C98.4523 20.3422 98.1641 20.3817 97.9564 20.4597C97.5467 20.6136 97.0644 21.0472 96.5924 21.6184L97.1547 22.0831C97.615 21.5262 97.9943 21.2248 98.2129 21.1427C98.3194 21.1027 98.2871 21.149 98.2278 21.1006C98.186 21.0665 98.2318 21.0644 98.2318 21.2488H98.9613ZM96.0067 24.4945C96.7471 24.0551 97.4673 23.4647 98.0058 22.8959C98.275 22.6116 98.506 22.3251 98.6721 22.0583C98.8301 21.8045 98.9613 21.519 98.9613 21.2488H98.2318C98.2318 21.307 98.1934 21.4469 98.0528 21.6727C97.9202 21.8856 97.7234 22.1332 97.476 22.3944C96.9815 22.9167 96.3137 23.4639 95.6344 23.8671L96.0067 24.4945ZM90.3658 25.0665C91.1917 25.3227 92.263 25.3756 93.2793 25.2735C94.2932 25.1716 95.3066 24.91 96.0067 24.4945L95.6344 23.8671C95.0614 24.2072 94.1655 24.4512 93.2063 24.5476C92.2496 24.6438 91.284 24.5875 90.5819 24.3697L90.3658 25.0665ZM86.1945 20.1323C86.4305 21.1121 86.9083 22.218 87.6049 23.1414C88.3004 24.0634 89.238 24.8335 90.3995 25.0752L90.5482 24.361C89.6175 24.1673 88.8183 23.5385 88.1873 22.702C87.5574 21.867 87.1189 20.855 86.9037 19.9614L86.1945 20.1323ZM100.447 17.8453V24.7118H101.177V17.8453H100.447ZM100.447 10.9787V17.8453H101.177V10.9787H100.447ZM103.787 10.6139H100.812V11.3435H103.787V10.6139ZM106.398 10.6139H103.787V11.3435H106.398V10.6139ZM106.763 12.1145V10.9787H106.033V12.1145H106.763ZM106.763 13.3602V12.1145H106.033V13.3602H106.763ZM107.125 12.2284L106.156 13.0872L106.64 13.6331L107.609 12.7743L107.125 12.2284ZM110.242 10.6139C109.71 10.6139 109.266 10.6979 108.774 10.9585C108.301 11.2095 107.795 11.6181 107.121 12.2318L107.613 12.771C108.283 12.1601 108.73 11.8074 109.116 11.6032C109.483 11.4086 109.805 11.3435 110.242 11.3435V10.6139ZM111.956 12.3846C112.04 11.8852 111.909 11.4251 111.576 11.0946C111.251 10.7719 110.776 10.6139 110.242 10.6139V11.3435C110.641 11.3435 110.91 11.4609 111.062 11.6122C111.207 11.7557 111.286 11.9682 111.236 12.2634L111.956 12.3846ZM110.163 13.2135C110.701 13.2094 111.107 13.1859 111.389 13.0828C111.543 13.0262 111.682 12.939 111.786 12.803C111.887 12.6706 111.933 12.5221 111.956 12.3847L111.236 12.2633C111.224 12.3352 111.21 12.3559 111.207 12.3598C111.206 12.3601 111.196 12.3764 111.138 12.3976C110.994 12.4501 110.717 12.4797 110.158 12.4839L110.163 13.2135ZM107.406 14.5939C107.913 13.9754 108.254 13.6524 108.624 13.4681C108.989 13.2858 109.423 13.2192 110.163 13.2135L110.157 12.4839C109.391 12.4899 108.818 12.5558 108.298 12.8153C107.782 13.0729 107.358 13.501 106.842 14.1317L107.406 14.5939ZM106.679 15.4693L107.405 14.5959L106.844 14.1296L106.118 15.003L106.679 15.4693ZM106.763 20.1715V15.2361H106.033V20.1715H106.763ZM106.763 24.7118V20.1715H106.033V24.7118H106.763ZM103.704 25.0766H106.398V24.347H103.704V25.0766ZM100.812 25.0766H103.704V24.347H100.812V25.0766ZM93.4435 12.4061C93.5383 12.4832 93.5941 12.5496 93.635 12.6277C93.6781 12.7101 93.7158 12.827 93.7432 13.0202C93.8002 13.4214 93.8012 14.0427 93.8012 15.1436H94.5307C94.5307 14.0723 94.5317 13.3836 94.4655 12.9176C94.4314 12.6772 94.3767 12.4714 94.2814 12.2893C94.1838 12.103 94.0551 11.9632 93.9039 11.8402L93.4435 12.4061ZM92.1991 12.5333C92.4921 12.2609 92.6614 12.1832 92.7958 12.1722C92.9344 12.1609 93.1255 12.2127 93.4817 12.4333L93.8657 11.813C93.4835 11.5764 93.1207 11.4136 92.7363 11.4451C92.3477 11.4769 92.0247 11.6993 91.7023 11.9991L92.1991 12.5333ZM91.8232 15.2703C91.8232 14.3138 91.8443 13.7095 91.911 13.2889C91.975 12.8845 92.0769 12.6788 92.2272 12.5041L91.6742 12.0283C91.4142 12.3305 91.2699 12.6732 91.1904 13.1747C91.1135 13.66 91.0936 14.3193 91.0936 15.2703H91.8232ZM91.8232 17.5592V15.2703H91.0936V17.5592H91.8232ZM92.8122 17.1944H91.4584V17.9239H92.8122V17.1944ZM94.166 17.1944H92.8122V17.9239H94.166V17.1944ZM93.8012 15.1436V17.5592H94.5307V15.1436H93.8012ZM164.243 24.7673V5.59433H163.514V24.7673H164.243ZM169.74 24.4025H163.878V25.1321H169.74V24.4025ZM169.375 20.0508V24.7673H170.104V20.0508H169.375ZM169.375 5.59433V20.0508H170.104V5.59433H169.375ZM163.878 5.95911H169.74V5.22956H163.878V5.95911ZM156.243 14.9724L161.54 14.9723V14.2428L156.243 14.2428V14.9724ZM156.608 16.2357V14.6076H155.879V16.2357H156.608ZM161.54 15.871H156.243V16.6005H161.54V15.871ZM161.176 14.6076V16.2357H161.905V14.6076H161.176ZM198.178 24.3671L193.078 5.90617L192.375 6.10044L197.475 24.5613L198.178 24.3671ZM191.99 24.829H197.826V24.0994H191.99V24.829ZM189.09 14.1285L191.636 24.5508L192.344 24.3776L189.798 13.9553L189.09 14.1285ZM192.389 5.86541L189.106 13.904L189.782 14.1798L193.064 6.1412L192.389 5.86541ZM180.727 13.3595L185.691 22.6176L186.334 22.2729L181.37 13.0148L180.727 13.3595ZM182.887 5.89707L180.7 13.0809L181.398 13.2933L183.585 6.10953L182.887 5.89707ZM188.792 16.2732L183.562 5.83983L182.91 6.16677L188.14 16.6001L188.792 16.2732ZM186.35 22.5832L188.804 16.5746L188.128 16.2988L185.675 22.3074L186.35 22.5832ZM169.756 5.95874C171.037 5.90106 172.961 6.19806 174.552 7.26193C176.122 8.3113 177.4 10.1248 177.4 13.184H178.129C178.129 9.88229 176.731 7.84074 174.958 6.65539C173.206 5.48454 171.118 5.16713 169.723 5.22993L169.756 5.95874ZM177.4 13.184C177.4 16.2414 176.125 17.9244 174.572 18.8224C172.99 19.7373 171.072 19.8627 169.788 19.6893L169.691 20.4123C171.082 20.6002 173.176 20.4727 174.938 19.454C176.728 18.4185 178.129 16.4874 178.129 13.184H177.4ZM189.082 14.0993L189.09 14.1286L189.798 13.9552L189.791 13.926L189.082 14.0993ZM188.804 16.5746L189.782 14.1798L189.106 13.904L188.128 16.2988L188.804 16.5746ZM180.696 13.0845L180.661 13.2104L181.363 13.4093L181.398 13.2834L180.696 13.0845ZM180.661 13.2104L177.413 24.6678L178.115 24.8668L181.363 13.4093L180.661 13.2104ZM181.361 13.416L181.398 13.2933L180.7 13.0809L180.663 13.2036L181.361 13.416ZM181.37 13.0142L181.368 13.011L180.726 13.3569L180.728 13.3601L181.37 13.0142Z" fill="#F2933C"/>
<path d="M51.1639 39.1555C50.7739 39.1555 50.4049 39.1015 50.0569 38.9935C49.7089 38.8795 49.4359 38.7385 49.2379 38.5705L49.5259 38.0665C49.7179 38.2105 49.9639 38.3365 50.2639 38.4445C50.5639 38.5465 50.8789 38.5975 51.2089 38.5975C51.6589 38.5975 51.9829 38.5285 52.1809 38.3905C52.3789 38.2465 52.4779 38.0575 52.4779 37.8235C52.4779 37.6495 52.4209 37.5145 52.3069 37.4185C52.1989 37.3165 52.0549 37.2415 51.8749 37.1935C51.6949 37.1395 51.4939 37.0945 51.2719 37.0585C51.0499 37.0225 50.8279 36.9805 50.6059 36.9325C50.3899 36.8845 50.1919 36.8155 50.0119 36.7255C49.8319 36.6295 49.6849 36.5005 49.5709 36.3385C49.4629 36.1765 49.4089 35.9605 49.4089 35.6905C49.4089 35.4325 49.4809 35.2015 49.6249 34.9975C49.7689 34.7935 49.9789 34.6345 50.2549 34.5205C50.5369 34.4005 50.8789 34.3405 51.2809 34.3405C51.5869 34.3405 51.8929 34.3825 52.1989 34.4665C52.5049 34.5445 52.7569 34.6495 52.9549 34.7815L52.6759 35.2945C52.4659 35.1505 52.2409 35.0485 52.0009 34.9885C51.7609 34.9225 51.5209 34.8895 51.2809 34.8895C50.8549 34.8895 50.5399 34.9645 50.3359 35.1145C50.1379 35.2585 50.0389 35.4445 50.0389 35.6725C50.0389 35.8525 50.0929 35.9935 50.2009 36.0955C50.3149 36.1975 50.4619 36.2785 50.6419 36.3385C50.8279 36.3925 51.0289 36.4375 51.2449 36.4735C51.4669 36.5095 51.6859 36.5545 51.9019 36.6085C52.1239 36.6565 52.3249 36.7255 52.5049 36.8155C52.6909 36.8995 52.8379 37.0225 52.9459 37.1845C53.0599 37.3405 53.1169 37.5475 53.1169 37.8055C53.1169 38.0815 53.0389 38.3215 52.8829 38.5255C52.7329 38.7235 52.5109 38.8795 52.2169 38.9935C51.9289 39.1015 51.5779 39.1555 51.1639 39.1555ZM56.7284 39.1555C56.3204 39.1555 55.9514 39.0625 55.6214 38.8765C55.2914 38.6845 55.0274 38.4115 54.8294 38.0575C54.6374 37.6975 54.5414 37.2595 54.5414 36.7435C54.5414 36.2275 54.6374 35.7925 54.8294 35.4385C55.0214 35.0785 55.2824 34.8055 55.6124 34.6195C55.9424 34.4335 56.3144 34.3405 56.7284 34.3405C57.1784 34.3405 57.5804 34.4425 57.9344 34.6465C58.2944 34.8445 58.5764 35.1265 58.7804 35.4925C58.9844 35.8525 59.0864 36.2695 59.0864 36.7435C59.0864 37.2235 58.9844 37.6435 58.7804 38.0035C58.5764 38.3635 58.2944 38.6455 57.9344 38.8495C57.5804 39.0535 57.1784 39.1555 56.7284 39.1555ZM54.2894 40.8565V34.3855H54.9014V35.8075L54.8384 36.7525L54.9284 37.7065V40.8565H54.2894ZM56.6834 38.5885C57.0194 38.5885 57.3194 38.5135 57.5834 38.3635C57.8474 38.2075 58.0574 37.9915 58.2134 37.7155C58.3694 37.4335 58.4474 37.1095 58.4474 36.7435C58.4474 36.3775 58.3694 36.0565 58.2134 35.7805C58.0574 35.5045 57.8474 35.2885 57.5834 35.1325C57.3194 34.9765 57.0194 34.8985 56.6834 34.8985C56.3474 34.8985 56.0444 34.9765 55.7744 35.1325C55.5104 35.2885 55.3004 35.5045 55.1444 35.7805C54.9944 36.0565 54.9194 36.3775 54.9194 36.7435C54.9194 37.1095 54.9944 37.4335 55.1444 37.7155C55.3004 37.9915 55.5104 38.2075 55.7744 38.3635C56.0444 38.5135 56.3474 38.5885 56.6834 38.5885ZM63.3237 39.1105V38.0665L63.2967 37.8955V36.1495C63.2967 35.7475 63.1827 35.4385 62.9547 35.2225C62.7327 35.0065 62.3997 34.8985 61.9557 34.8985C61.6497 34.8985 61.3587 34.9495 61.0827 35.0515C60.8067 35.1535 60.5727 35.2885 60.3807 35.4565L60.0927 34.9795C60.3327 34.7755 60.6207 34.6195 60.9567 34.5115C61.2927 34.3975 61.6467 34.3405 62.0187 34.3405C62.6307 34.3405 63.1017 34.4935 63.4317 34.7995C63.7677 35.0995 63.9357 35.5585 63.9357 36.1765V39.1105H63.3237ZM61.6947 39.1555C61.3407 39.1555 61.0317 39.0985 60.7677 38.9845C60.5097 38.8645 60.3117 38.7025 60.1737 38.4985C60.0357 38.2885 59.9667 38.0485 59.9667 37.7785C59.9667 37.5325 60.0237 37.3105 60.1377 37.1125C60.2577 36.9085 60.4497 36.7465 60.7137 36.6265C60.9837 36.5005 61.3437 36.4375 61.7937 36.4375H63.4227V36.9145H61.8117C61.3557 36.9145 61.0377 36.9955 60.8577 37.1575C60.6837 37.3195 60.5967 37.5205 60.5967 37.7605C60.5967 38.0305 60.7017 38.2465 60.9117 38.4085C61.1217 38.5705 61.4157 38.6515 61.7937 38.6515C62.1537 38.6515 62.4627 38.5705 62.7207 38.4085C62.9847 38.2405 63.1767 38.0005 63.2967 37.6885L63.4407 38.1295C63.3207 38.4415 63.1107 38.6905 62.8107 38.8765C62.5167 39.0625 62.1447 39.1555 61.6947 39.1555ZM65.6713 39.1105V34.3855H66.2833V35.6725L66.2203 35.4475C66.3523 35.0875 66.5743 34.8145 66.8863 34.6285C67.1983 34.4365 67.5853 34.3405 68.0473 34.3405V34.9615C68.0233 34.9615 67.9993 34.9615 67.9753 34.9615C67.9513 34.9555 67.9273 34.9525 67.9033 34.9525C67.4053 34.9525 67.0153 35.1055 66.7333 35.4115C66.4513 35.7115 66.3103 36.1405 66.3103 36.6985V39.1105H65.6713ZM71.1763 39.1555C70.6843 39.1555 70.2523 39.0535 69.8803 38.8495C69.5083 38.6395 69.2173 38.3545 69.0073 37.9945C68.7973 37.6285 68.6923 37.2115 68.6923 36.7435C68.6923 36.2755 68.7913 35.8615 68.9893 35.5015C69.1933 35.1415 69.4693 34.8595 69.8173 34.6555C70.1713 34.4455 70.5673 34.3405 71.0053 34.3405C71.4493 34.3405 71.8423 34.4425 72.1843 34.6465C72.5323 34.8445 72.8053 35.1265 73.0033 35.4925C73.2013 35.8525 73.3003 36.2695 73.3003 36.7435C73.3003 36.7735 73.2973 36.8065 73.2913 36.8425C73.2913 36.8725 73.2913 36.9055 73.2913 36.9415H69.1783V36.4645H72.9493L72.6973 36.6535C72.6973 36.3115 72.6223 36.0085 72.4723 35.7445C72.3283 35.4745 72.1303 35.2645 71.8783 35.1145C71.6263 34.9645 71.3353 34.8895 71.0053 34.8895C70.6813 34.8895 70.3903 34.9645 70.1323 35.1145C69.8743 35.2645 69.6733 35.4745 69.5293 35.7445C69.3853 36.0145 69.3133 36.3235 69.3133 36.6715V36.7705C69.3133 37.1305 69.3913 37.4485 69.5473 37.7245C69.7093 37.9945 69.9313 38.2075 70.2133 38.3635C70.5013 38.5135 70.8283 38.5885 71.1943 38.5885C71.4823 38.5885 71.7493 38.5375 71.9953 38.4355C72.2473 38.3335 72.4633 38.1775 72.6433 37.9675L73.0033 38.3815C72.7933 38.6335 72.5293 38.8255 72.2113 38.9575C71.8993 39.0895 71.5543 39.1555 71.1763 39.1555ZM79.3954 39.1555C78.9874 39.1555 78.6184 39.0625 78.2884 38.8765C77.9584 38.6845 77.6944 38.4115 77.4964 38.0575C77.3044 37.6975 77.2084 37.2595 77.2084 36.7435C77.2084 36.2275 77.3044 35.7925 77.4964 35.4385C77.6884 35.0785 77.9494 34.8055 78.2794 34.6195C78.6094 34.4335 78.9814 34.3405 79.3954 34.3405C79.8454 34.3405 80.2474 34.4425 80.6014 34.6465C80.9614 34.8445 81.2434 35.1265 81.4474 35.4925C81.6514 35.8525 81.7534 36.2695 81.7534 36.7435C81.7534 37.2235 81.6514 37.6435 81.4474 38.0035C81.2434 38.3635 80.9614 38.6455 80.6014 38.8495C80.2474 39.0535 79.8454 39.1555 79.3954 39.1555ZM76.9564 40.8565V34.3855H77.5684V35.8075L77.5054 36.7525L77.5954 37.7065V40.8565H76.9564ZM79.3504 38.5885C79.6864 38.5885 79.9864 38.5135 80.2504 38.3635C80.5144 38.2075 80.7244 37.9915 80.8804 37.7155C81.0364 37.4335 81.1144 37.1095 81.1144 36.7435C81.1144 36.3775 81.0364 36.0565 80.8804 35.7805C80.7244 35.5045 80.5144 35.2885 80.2504 35.1325C79.9864 34.9765 79.6864 34.8985 79.3504 34.8985C79.0144 34.8985 78.7114 34.9765 78.4414 35.1325C78.1774 35.2885 77.9674 35.5045 77.8114 35.7805C77.6614 36.0565 77.5864 36.3775 77.5864 36.7435C77.5864 37.1095 77.6614 37.4335 77.8114 37.7155C77.9674 37.9915 78.1774 38.2075 78.4414 38.3635C78.7114 38.5135 79.0144 38.5885 79.3504 38.5885ZM85.9907 39.1105V38.0665L85.9637 37.8955V36.1495C85.9637 35.7475 85.8497 35.4385 85.6217 35.2225C85.3997 35.0065 85.0667 34.8985 84.6227 34.8985C84.3167 34.8985 84.0257 34.9495 83.7497 35.0515C83.4737 35.1535 83.2397 35.2885 83.0477 35.4565L82.7597 34.9795C82.9997 34.7755 83.2877 34.6195 83.6237 34.5115C83.9597 34.3975 84.3137 34.3405 84.6857 34.3405C85.2977 34.3405 85.7687 34.4935 86.0987 34.7995C86.4347 35.0995 86.6027 35.5585 86.6027 36.1765V39.1105H85.9907ZM84.3617 39.1555C84.0077 39.1555 83.6987 39.0985 83.4347 38.9845C83.1767 38.8645 82.9787 38.7025 82.8407 38.4985C82.7027 38.2885 82.6337 38.0485 82.6337 37.7785C82.6337 37.5325 82.6907 37.3105 82.8047 37.1125C82.9247 36.9085 83.1167 36.7465 83.3807 36.6265C83.6507 36.5005 84.0107 36.4375 84.4607 36.4375H86.0897V36.9145H84.4787C84.0227 36.9145 83.7047 36.9955 83.5247 37.1575C83.3507 37.3195 83.2637 37.5205 83.2637 37.7605C83.2637 38.0305 83.3687 38.2465 83.5787 38.4085C83.7887 38.5705 84.0827 38.6515 84.4607 38.6515C84.8207 38.6515 85.1297 38.5705 85.3877 38.4085C85.6517 38.2405 85.8437 38.0005 85.9637 37.6885L86.1077 38.1295C85.9877 38.4415 85.7777 38.6905 85.4777 38.8765C85.1837 39.0625 84.8117 39.1555 84.3617 39.1555ZM88.3383 39.1105V34.3855H88.9503V35.6725L88.8873 35.4475C89.0193 35.0875 89.2413 34.8145 89.5533 34.6285C89.8653 34.4365 90.2523 34.3405 90.7143 34.3405V34.9615C90.6903 34.9615 90.6663 34.9615 90.6423 34.9615C90.6183 34.9555 90.5943 34.9525 90.5703 34.9525C90.0723 34.9525 89.6823 35.1055 89.4003 35.4115C89.1183 35.7115 88.9773 36.1405 88.9773 36.6985V39.1105H88.3383ZM93.5764 39.1555C93.1324 39.1555 92.7904 39.0355 92.5504 38.7955C92.3104 38.5555 92.1904 38.2165 92.1904 37.7785V33.3415H92.8294V37.7425C92.8294 38.0185 92.8984 38.2315 93.0364 38.3815C93.1804 38.5315 93.3844 38.6065 93.6484 38.6065C93.9304 38.6065 94.1644 38.5255 94.3504 38.3635L94.5754 38.8225C94.4494 38.9365 94.2964 39.0205 94.1164 39.0745C93.9424 39.1285 93.7624 39.1555 93.5764 39.1555ZM91.3444 34.9165V34.3855H94.2694V34.9165H91.3444ZM97.0077 39.1555C96.6177 39.1555 96.2487 39.1015 95.9007 38.9935C95.5527 38.8795 95.2797 38.7385 95.0817 38.5705L95.3697 38.0665C95.5617 38.2105 95.8077 38.3365 96.1077 38.4445C96.4077 38.5465 96.7227 38.5975 97.0527 38.5975C97.5027 38.5975 97.8267 38.5285 98.0247 38.3905C98.2227 38.2465 98.3217 38.0575 98.3217 37.8235C98.3217 37.6495 98.2647 37.5145 98.1507 37.4185C98.0427 37.3165 97.8987 37.2415 97.7187 37.1935C97.5387 37.1395 97.3377 37.0945 97.1157 37.0585C96.8937 37.0225 96.6717 36.9805 96.4497 36.9325C96.2337 36.8845 96.0357 36.8155 95.8557 36.7255C95.6757 36.6295 95.5287 36.5005 95.4147 36.3385C95.3067 36.1765 95.2527 35.9605 95.2527 35.6905C95.2527 35.4325 95.3247 35.2015 95.4687 34.9975C95.6127 34.7935 95.8227 34.6345 96.0987 34.5205C96.3807 34.4005 96.7227 34.3405 97.1247 34.3405C97.4307 34.3405 97.7367 34.3825 98.0427 34.4665C98.3487 34.5445 98.6007 34.6495 98.7987 34.7815L98.5197 35.2945C98.3097 35.1505 98.0847 35.0485 97.8447 34.9885C97.6047 34.9225 97.3647 34.8895 97.1247 34.8895C96.6987 34.8895 96.3837 34.9645 96.1797 35.1145C95.9817 35.2585 95.8827 35.4445 95.8827 35.6725C95.8827 35.8525 95.9367 35.9935 96.0447 36.0955C96.1587 36.1975 96.3057 36.2785 96.4857 36.3385C96.6717 36.3925 96.8727 36.4375 97.0887 36.4735C97.3107 36.5095 97.5297 36.5545 97.7457 36.6085C97.9677 36.6565 98.1687 36.7255 98.3487 36.8155C98.5347 36.8995 98.6817 37.0225 98.7897 37.1845C98.9037 37.3405 98.9607 37.5475 98.9607 37.8055C98.9607 38.0815 98.8827 38.3215 98.7267 38.5255C98.5767 38.7235 98.3547 38.8795 98.0607 38.9935C97.7727 39.1015 97.4217 39.1555 97.0077 39.1555ZM102.597 39.1105V33.7915C102.597 33.3715 102.72 33.0325 102.966 32.7745C103.212 32.5165 103.566 32.3875 104.028 32.3875C104.208 32.3875 104.382 32.4115 104.55 32.4595C104.718 32.5075 104.859 32.5825 104.973 32.6845L104.757 33.1615C104.667 33.0835 104.562 33.0265 104.442 32.9905C104.322 32.9485 104.193 32.9275 104.055 32.9275C103.785 32.9275 103.578 33.0025 103.434 33.1525C103.29 33.3025 103.218 33.5245 103.218 33.8185V34.5385L103.236 34.8355V39.1105H102.597ZM101.751 34.9165V34.3855H104.676V34.9165H101.751ZM107.385 39.1555C106.929 39.1555 106.518 39.0535 106.152 38.8495C105.792 38.6395 105.507 38.3545 105.297 37.9945C105.087 37.6285 104.982 37.2115 104.982 36.7435C104.982 36.2695 105.087 35.8525 105.297 35.4925C105.507 35.1325 105.792 34.8505 106.152 34.6465C106.512 34.4425 106.923 34.3405 107.385 34.3405C107.853 34.3405 108.267 34.4425 108.627 34.6465C108.993 34.8505 109.278 35.1325 109.482 35.4925C109.692 35.8525 109.797 36.2695 109.797 36.7435C109.797 37.2115 109.692 37.6285 109.482 37.9945C109.278 38.3545 108.993 38.6395 108.627 38.8495C108.261 39.0535 107.847 39.1555 107.385 39.1555ZM107.385 38.5885C107.727 38.5885 108.03 38.5135 108.294 38.3635C108.558 38.2075 108.765 37.9915 108.915 37.7155C109.071 37.4335 109.149 37.1095 109.149 36.7435C109.149 36.3715 109.071 36.0475 108.915 35.7715C108.765 35.4955 108.558 35.2825 108.294 35.1325C108.03 34.9765 107.73 34.8985 107.394 34.8985C107.058 34.8985 106.758 34.9765 106.494 35.1325C106.23 35.2825 106.02 35.4955 105.864 35.7715C105.708 36.0475 105.63 36.3715 105.63 36.7435C105.63 37.1095 105.708 37.4335 105.864 37.7155C106.02 37.9915 106.23 38.2075 106.494 38.3635C106.758 38.5135 107.055 38.5885 107.385 38.5885ZM111.102 39.1105V34.3855H111.714V35.6725L111.651 35.4475C111.783 35.0875 112.005 34.8145 112.317 34.6285C112.629 34.4365 113.016 34.3405 113.478 34.3405V34.9615C113.454 34.9615 113.43 34.9615 113.406 34.9615C113.382 34.9555 113.358 34.9525 113.334 34.9525C112.836 34.9525 112.446 35.1055 112.164 35.4115C111.882 35.7115 111.741 36.1405 111.741 36.6985V39.1105H111.102ZM119.509 39.1555C119.101 39.1555 118.732 39.0625 118.402 38.8765C118.072 38.6845 117.808 38.4115 117.61 38.0575C117.418 37.6975 117.322 37.2595 117.322 36.7435C117.322 36.2275 117.418 35.7925 117.61 35.4385C117.802 35.0785 118.063 34.8055 118.393 34.6195C118.723 34.4335 119.095 34.3405 119.509 34.3405C119.959 34.3405 120.361 34.4425 120.715 34.6465C121.075 34.8445 121.357 35.1265 121.561 35.4925C121.765 35.8525 121.867 36.2695 121.867 36.7435C121.867 37.2235 121.765 37.6435 121.561 38.0035C121.357 38.3635 121.075 38.6455 120.715 38.8495C120.361 39.0535 119.959 39.1555 119.509 39.1555ZM117.07 40.8565V34.3855H117.682V35.8075L117.619 36.7525L117.709 37.7065V40.8565H117.07ZM119.464 38.5885C119.8 38.5885 120.1 38.5135 120.364 38.3635C120.628 38.2075 120.838 37.9915 120.994 37.7155C121.15 37.4335 121.228 37.1095 121.228 36.7435C121.228 36.3775 121.15 36.0565 120.994 35.7805C120.838 35.5045 120.628 35.2885 120.364 35.1325C120.1 34.9765 119.8 34.8985 119.464 34.8985C119.128 34.8985 118.825 34.9765 118.555 35.1325C118.291 35.2885 118.081 35.5045 117.925 35.7805C117.775 36.0565 117.7 36.3775 117.7 36.7435C117.7 37.1095 117.775 37.4335 117.925 37.7155C118.081 37.9915 118.291 38.2075 118.555 38.3635C118.825 38.5135 119.128 38.5885 119.464 38.5885ZM125.095 39.1555C124.639 39.1555 124.228 39.0535 123.862 38.8495C123.502 38.6395 123.217 38.3545 123.007 37.9945C122.797 37.6285 122.692 37.2115 122.692 36.7435C122.692 36.2695 122.797 35.8525 123.007 35.4925C123.217 35.1325 123.502 34.8505 123.862 34.6465C124.222 34.4425 124.633 34.3405 125.095 34.3405C125.563 34.3405 125.977 34.4425 126.337 34.6465C126.703 34.8505 126.988 35.1325 127.192 35.4925C127.402 35.8525 127.507 36.2695 127.507 36.7435C127.507 37.2115 127.402 37.6285 127.192 37.9945C126.988 38.3545 126.703 38.6395 126.337 38.8495C125.971 39.0535 125.557 39.1555 125.095 39.1555ZM125.095 38.5885C125.437 38.5885 125.74 38.5135 126.004 38.3635C126.268 38.2075 126.475 37.9915 126.625 37.7155C126.781 37.4335 126.859 37.1095 126.859 36.7435C126.859 36.3715 126.781 36.0475 126.625 35.7715C126.475 35.4955 126.268 35.2825 126.004 35.1325C125.74 34.9765 125.44 34.8985 125.104 34.8985C124.768 34.8985 124.468 34.9765 124.204 35.1325C123.94 35.2825 123.73 35.4955 123.574 35.7715C123.418 36.0475 123.34 36.3715 123.34 36.7435C123.34 37.1095 123.418 37.4335 123.574 37.7155C123.73 37.9915 123.94 38.2075 124.204 38.3635C124.468 38.5135 124.765 38.5885 125.095 38.5885ZM130.765 39.1555C130.363 39.1555 130.012 39.0805 129.712 38.9305C129.412 38.7805 129.178 38.5555 129.01 38.2555C128.848 37.9555 128.767 37.5805 128.767 37.1305V34.3855H129.406V37.0585C129.406 37.5625 129.529 37.9435 129.775 38.2015C130.027 38.4535 130.378 38.5795 130.828 38.5795C131.158 38.5795 131.443 38.5135 131.683 38.3815C131.929 38.2435 132.115 38.0455 132.241 37.7875C132.373 37.5295 132.439 37.2205 132.439 36.8605V34.3855H133.078V39.1105H132.466V37.8145L132.565 38.0485C132.415 38.3965 132.181 38.6695 131.863 38.8675C131.551 39.0595 131.185 39.1555 130.765 39.1555ZM134.859 39.1105V32.4325H135.498V39.1105H134.859ZM138.796 39.1555C138.352 39.1555 138.01 39.0355 137.77 38.7955C137.53 38.5555 137.41 38.2165 137.41 37.7785V33.3415H138.049V37.7425C138.049 38.0185 138.118 38.2315 138.256 38.3815C138.4 38.5315 138.604 38.6065 138.868 38.6065C139.15 38.6065 139.384 38.5255 139.57 38.3635L139.795 38.8225C139.669 38.9365 139.516 39.0205 139.336 39.0745C139.162 39.1285 138.982 39.1555 138.796 39.1555ZM136.564 34.9165V34.3855H139.489V34.9165H136.564ZM140.958 39.1105V34.3855H141.57V35.6725L141.507 35.4475C141.639 35.0875 141.861 34.8145 142.173 34.6285C142.485 34.4365 142.872 34.3405 143.334 34.3405V34.9615C143.31 34.9615 143.286 34.9615 143.262 34.9615C143.238 34.9555 143.214 34.9525 143.19 34.9525C142.692 34.9525 142.302 35.1055 142.02 35.4115C141.738 35.7115 141.597 36.1405 141.597 36.6985V39.1105H140.958ZM144.739 40.9015C144.517 40.9015 144.304 40.8655 144.1 40.7935C143.902 40.7215 143.731 40.6135 143.587 40.4695L143.884 39.9925C144.004 40.1065 144.133 40.1935 144.271 40.2535C144.415 40.3195 144.574 40.3525 144.748 40.3525C144.958 40.3525 145.138 40.2925 145.288 40.1725C145.444 40.0585 145.591 39.8545 145.729 39.5605L146.035 38.8675L146.107 38.7685L148.051 34.3855H148.681L146.314 39.6775C146.182 39.9835 146.035 40.2265 145.873 40.4065C145.717 40.5865 145.546 40.7125 145.36 40.7845C145.174 40.8625 144.967 40.9015 144.739 40.9015ZM145.999 39.2455L143.821 34.3855H144.487L146.413 38.7235L145.999 39.2455ZM157.84 34.3405C158.224 34.3405 158.557 34.4155 158.839 34.5655C159.127 34.7095 159.349 34.9315 159.505 35.2315C159.667 35.5315 159.748 35.9095 159.748 36.3655V39.1105H159.109V36.4285C159.109 35.9305 158.989 35.5555 158.749 35.3035C158.515 35.0455 158.182 34.9165 157.75 34.9165C157.426 34.9165 157.144 34.9855 156.904 35.1235C156.67 35.2555 156.487 35.4505 156.355 35.7085C156.229 35.9605 156.166 36.2665 156.166 36.6265V39.1105H155.527V36.4285C155.527 35.9305 155.407 35.5555 155.167 35.3035C154.927 35.0455 154.591 34.9165 154.159 34.9165C153.841 34.9165 153.562 34.9855 153.322 35.1235C153.082 35.2555 152.896 35.4505 152.764 35.7085C152.638 35.9605 152.575 36.2665 152.575 36.6265V39.1105H151.936V34.3855H152.548V35.6635L152.449 35.4385C152.593 35.0965 152.824 34.8295 153.142 34.6375C153.466 34.4395 153.847 34.3405 154.285 34.3405C154.747 34.3405 155.14 34.4575 155.464 34.6915C155.788 34.9195 155.998 35.2645 156.094 35.7265L155.842 35.6275C155.98 35.2435 156.223 34.9345 156.571 34.7005C156.925 34.4605 157.348 34.3405 157.84 34.3405ZM164.442 39.1105V38.0665L164.415 37.8955V36.1495C164.415 35.7475 164.301 35.4385 164.073 35.2225C163.851 35.0065 163.518 34.8985 163.074 34.8985C162.768 34.8985 162.477 34.9495 162.201 35.0515C161.925 35.1535 161.691 35.2885 161.499 35.4565L161.211 34.9795C161.451 34.7755 161.739 34.6195 162.075 34.5115C162.411 34.3975 162.765 34.3405 163.137 34.3405C163.749 34.3405 164.22 34.4935 164.55 34.7995C164.886 35.0995 165.054 35.5585 165.054 36.1765V39.1105H164.442ZM162.813 39.1555C162.459 39.1555 162.15 39.0985 161.886 38.9845C161.628 38.8645 161.43 38.7025 161.292 38.4985C161.154 38.2885 161.085 38.0485 161.085 37.7785C161.085 37.5325 161.142 37.3105 161.256 37.1125C161.376 36.9085 161.568 36.7465 161.832 36.6265C162.102 36.5005 162.462 36.4375 162.912 36.4375H164.541V36.9145H162.93C162.474 36.9145 162.156 36.9955 161.976 37.1575C161.802 37.3195 161.715 37.5205 161.715 37.7605C161.715 38.0305 161.82 38.2465 162.03 38.4085C162.24 38.5705 162.534 38.6515 162.912 38.6515C163.272 38.6515 163.581 38.5705 163.839 38.4085C164.103 38.2405 164.295 38.0005 164.415 37.6885L164.559 38.1295C164.439 38.4415 164.229 38.6905 163.929 38.8765C163.635 39.0625 163.263 39.1555 162.813 39.1555ZM168.058 39.1555C167.668 39.1555 167.299 39.1015 166.951 38.9935C166.603 38.8795 166.33 38.7385 166.132 38.5705L166.42 38.0665C166.612 38.2105 166.858 38.3365 167.158 38.4445C167.458 38.5465 167.773 38.5975 168.103 38.5975C168.553 38.5975 168.877 38.5285 169.075 38.3905C169.273 38.2465 169.372 38.0575 169.372 37.8235C169.372 37.6495 169.315 37.5145 169.201 37.4185C169.093 37.3165 168.949 37.2415 168.769 37.1935C168.589 37.1395 168.388 37.0945 168.166 37.0585C167.944 37.0225 167.722 36.9805 167.5 36.9325C167.284 36.8845 167.086 36.8155 166.906 36.7255C166.726 36.6295 166.579 36.5005 166.465 36.3385C166.357 36.1765 166.303 35.9605 166.303 35.6905C166.303 35.4325 166.375 35.2015 166.519 34.9975C166.663 34.7935 166.873 34.6345 167.149 34.5205C167.431 34.4005 167.773 34.3405 168.175 34.3405C168.481 34.3405 168.787 34.3825 169.093 34.4665C169.399 34.5445 169.651 34.6495 169.849 34.7815L169.57 35.2945C169.36 35.1505 169.135 35.0485 168.895 34.9885C168.655 34.9225 168.415 34.8895 168.175 34.8895C167.749 34.8895 167.434 34.9645 167.23 35.1145C167.032 35.2585 166.933 35.4445 166.933 35.6725C166.933 35.8525 166.987 35.9935 167.095 36.0955C167.209 36.1975 167.356 36.2785 167.536 36.3385C167.722 36.3925 167.923 36.4375 168.139 36.4735C168.361 36.5095 168.58 36.5545 168.796 36.6085C169.018 36.6565 169.219 36.7255 169.399 36.8155C169.585 36.8995 169.732 37.0225 169.84 37.1845C169.954 37.3405 170.011 37.5475 170.011 37.8055C170.011 38.0815 169.933 38.3215 169.777 38.5255C169.627 38.7235 169.405 38.8795 169.111 38.9935C168.823 39.1015 168.472 39.1555 168.058 39.1555ZM173.596 34.3405C173.98 34.3405 174.316 34.4155 174.604 34.5655C174.898 34.7095 175.126 34.9315 175.288 35.2315C175.456 35.5315 175.54 35.9095 175.54 36.3655V39.1105H174.901V36.4285C174.901 35.9305 174.775 35.5555 174.523 35.3035C174.277 35.0455 173.929 34.9165 173.479 34.9165C173.143 34.9165 172.849 34.9855 172.597 35.1235C172.351 35.2555 172.159 35.4505 172.021 35.7085C171.889 35.9605 171.823 36.2665 171.823 36.6265V39.1105H171.184V32.4325H171.823V35.6815L171.697 35.4385C171.847 35.0965 172.087 34.8295 172.417 34.6375C172.747 34.4395 173.14 34.3405 173.596 34.3405ZM177.266 39.1105V34.3855H177.905V39.1105H177.266ZM177.59 33.3415C177.458 33.3415 177.347 33.2965 177.257 33.2065C177.167 33.1165 177.122 33.0085 177.122 32.8825C177.122 32.7565 177.167 32.6515 177.257 32.5675C177.347 32.4775 177.458 32.4325 177.59 32.4325C177.722 32.4325 177.833 32.4745 177.923 32.5585C178.013 32.6425 178.058 32.7475 178.058 32.8735C178.058 33.0055 178.013 33.1165 177.923 33.2065C177.839 33.2965 177.728 33.3415 177.59 33.3415ZM182.095 34.3405C182.479 34.3405 182.815 34.4155 183.103 34.5655C183.397 34.7095 183.625 34.9315 183.787 35.2315C183.955 35.5315 184.039 35.9095 184.039 36.3655V39.1105H183.4V36.4285C183.4 35.9305 183.274 35.5555 183.022 35.3035C182.776 35.0455 182.428 34.9165 181.978 34.9165C181.642 34.9165 181.348 34.9855 181.096 35.1235C180.85 35.2555 180.658 35.4505 180.52 35.7085C180.388 35.9605 180.322 36.2665 180.322 36.6265V39.1105H179.683V34.3855H180.295V35.6815L180.196 35.4385C180.346 35.0965 180.586 34.8295 180.916 34.6375C181.246 34.4395 181.639 34.3405 182.095 34.3405ZM187.772 39.1555C187.28 39.1555 186.848 39.0535 186.476 38.8495C186.104 38.6395 185.813 38.3545 185.603 37.9945C185.393 37.6285 185.288 37.2115 185.288 36.7435C185.288 36.2755 185.387 35.8615 185.585 35.5015C185.789 35.1415 186.065 34.8595 186.413 34.6555C186.767 34.4455 187.163 34.3405 187.601 34.3405C188.045 34.3405 188.438 34.4425 188.78 34.6465C189.128 34.8445 189.401 35.1265 189.599 35.4925C189.797 35.8525 189.896 36.2695 189.896 36.7435C189.896 36.7735 189.893 36.8065 189.887 36.8425C189.887 36.8725 189.887 36.9055 189.887 36.9415H185.774V36.4645H189.545L189.293 36.6535C189.293 36.3115 189.218 36.0085 189.068 35.7445C188.924 35.4745 188.726 35.2645 188.474 35.1145C188.222 34.9645 187.931 34.8895 187.601 34.8895C187.277 34.8895 186.986 34.9645 186.728 35.1145C186.47 35.2645 186.269 35.4745 186.125 35.7445C185.981 36.0145 185.909 36.3235 185.909 36.6715V36.7705C185.909 37.1305 185.987 37.4485 186.143 37.7245C186.305 37.9945 186.527 38.2075 186.809 38.3635C187.097 38.5135 187.424 38.5885 187.79 38.5885C188.078 38.5885 188.345 38.5375 188.591 38.4355C188.843 38.3335 189.059 38.1775 189.239 37.9675L189.599 38.3815C189.389 38.6335 189.125 38.8255 188.807 38.9575C188.495 39.0895 188.15 39.1555 187.772 39.1555ZM191.197 39.1105V34.3855H191.809V35.6725L191.746 35.4475C191.878 35.0875 192.1 34.8145 192.412 34.6285C192.724 34.4365 193.111 34.3405 193.573 34.3405V34.9615C193.549 34.9615 193.525 34.9615 193.501 34.9615C193.477 34.9555 193.453 34.9525 193.429 34.9525C192.931 34.9525 192.541 35.1055 192.259 35.4115C191.977 35.7115 191.836 36.1405 191.836 36.6985V39.1105H191.197ZM194.977 40.9015C194.755 40.9015 194.542 40.8655 194.338 40.7935C194.14 40.7215 193.969 40.6135 193.825 40.4695L194.122 39.9925C194.242 40.1065 194.371 40.1935 194.509 40.2535C194.653 40.3195 194.812 40.3525 194.986 40.3525C195.196 40.3525 195.376 40.2925 195.526 40.1725C195.682 40.0585 195.829 39.8545 195.967 39.5605L196.273 38.8675L196.345 38.7685L198.289 34.3855H198.919L196.552 39.6775C196.42 39.9835 196.273 40.2265 196.111 40.4065C195.955 40.5865 195.784 40.7125 195.598 40.7845C195.412 40.8625 195.205 40.9015 194.977 40.9015ZM196.237 39.2455L194.059 34.3855H194.725L196.651 38.7235L196.237 39.2455Z" fill="black"/>
</svg>
