<svg width="199" height="44" viewBox="0 0 199 44" fill="none" xmlns="http://www.w3.org/2000/svg">
<path d="M43.0033 21.7995C43.0033 33.2781 33.6092 42.599 22.0017 42.599C10.3941 42.599 1.0001 33.2781 1.0001 21.7995C1.0001 10.321 10.3941 1.0001 22.0017 1.0001C33.6092 1.0001 43.0033 10.321 43.0033 21.7995Z" stroke="white" stroke-width="2.0002"/>
<rect x="7.51018" y="7.44683" width="28.9863" height="28.7056" stroke="white" stroke-width="1.47837"/>
<path d="M8.02539 7.26624L14.5349 20.6813M36.7975 7.26624L30.0276 20.6813M14.5349 20.6813L22.002 34.8793L30.0276 20.6813M14.5349 20.6813L22.002 8.71982L30.0276 20.6813" stroke="white" stroke-width="2.0002"/>
<path d="M7.85547 35.7739V8.19238L21.8672 35.7739H7.85547Z" fill="white"/>
<path d="M36.7998 35.7736L36.7996 8.3844L22.1314 35.7736H36.7998Z" fill="white"/>
<path fill-rule="evenodd" clip-rule="evenodd" d="M49.3682 24.7119V12.9816V1.25122H53.9218H58.4754V12.9816V24.7119H53.9218H49.3682ZM134.041 6.40112C134.041 5.82892 134.287 5.32593 135 4.76746C136.64 3.48315 139.825 4.2464 140.194 5.95587C140.715 8.36829 137.18 9.83179 135 8.12433C134.287 7.56586 134.041 6.83026 134.041 6.40112ZM123.105 24.7125C122.949 24.702 112.851 5.83521 112.851 5.54279L113.227 5.54364C113.731 5.54492 114.746 5.54755 116.38 5.55054L120.626 5.55853L123.323 10.8306L125.954 16.0092L127.093 13.5495C127.826 12.0358 128.64 10.333 129.291 8.914C129.707 7.93884 130.184 6.93658 130.428 6.42462C130.499 6.2757 130.55 6.16827 130.574 6.11505C130.681 5.87897 130.718 5.82892 130.841 5.54279H132.072C131.44 6.7641 128.164 13.8504 126.22 18.0552C125.784 18.9971 125.415 19.7944 125.158 20.3488C124.698 21.3419 124.326 22.1534 124.032 22.7953C123.429 24.1116 123.153 24.7156 123.105 24.7125ZM141.512 6.40112V5.47595C141.758 5.47595 153.383 5.50134 157.917 5.54279V6.40112H155.599H153.24V15.5565V24.7119H149.425L145.917 24.7125V15.5565V6.40112H141.512ZM77.0591 10.9788V9.83441C77.8574 9.49182 78.9424 8.89813 79.9967 8.32123C80.9743 7.78632 81.9255 7.26587 82.5973 6.97333V9.11914V10.9788H84.9357V12.1232H83.7049H82.5973V22.4946C82.5973 23.5675 82.5973 23.8451 84.1426 22.4946C85.0587 21.4131 85.3049 21.4818 85.551 21.8508C85.6741 22.3401 84.2881 23.7181 83.1213 24.3341C81.8191 24.8071 79.6217 25.0909 78.4009 24.0503C77.0577 22.8564 77.0579 22.3123 77.059 17.8243L77.0591 17.4077V12.1232H76.0866H75.2131V10.9788H77.0591ZM134.041 24.7119V17.1301V9.54828H137.241L140.194 9.56995V17.1301V24.7125L137.241 24.7119H134.041ZM60.1984 24.7119V17.8453V10.9788H63.029H65.8597V11.842V12.7052L67.1519 11.9404C68.8653 10.9265 71.5202 10.6801 72.8469 11.4117C74.4251 12.2823 74.5871 12.9721 74.6779 19.2043V24.7119H71.8409H68.9231L69.0122 19.0613C69.1213 12.1378 69.0851 12.0228 67.1509 13.1432L65.8597 13.8911V19.3013V24.7119H63.029H60.1984ZM86.5491 20.0469C85.7044 16.5407 87.146 13.0809 90.1046 11.513C91.564 10.7396 93.9614 10.8071 95.5485 11.6661C97.418 12.678 98.8427 15.1608 98.8427 17.407V18.4176H95.1262H91.4584L91.4956 21.0031C91.4588 23.5391 91.7372 23.5649 93.253 23.7057L93.3045 23.7105C94.5352 23.5675 95.8545 23.084 96.8735 21.8508C97.8059 20.7227 98.5965 20.3809 98.5965 21.2489C98.5965 21.9058 97.2403 23.3383 95.8205 24.1809C94.5475 24.9365 92.0019 25.1923 90.4738 24.7182C88.3816 24.2828 87.0003 21.9203 86.5491 20.0469ZM100.812 24.7119V17.8453V10.9788H103.787H106.398V12.1146V13.3603L107.367 12.5015C108.711 11.2769 109.273 10.9788 110.242 10.9788C111.175 10.9788 111.73 11.5296 111.596 12.3241C111.525 12.7427 111.258 12.8405 110.16 12.8488C108.654 12.8605 108.147 13.1138 107.124 14.3629L106.398 15.2363V20.1716V24.7119H103.704H100.812ZM94.166 15.1437C94.166 12.9716 94.1657 12.5235 93.6737 12.1232C92.9353 11.6661 92.566 11.6941 91.9507 12.2663C91.5404 12.7432 91.4584 13.3629 91.4584 15.2704V17.5593H92.8122H94.166V15.1437ZM163.878 5.59448V24.7675H169.74V20.0509V5.59448H163.878ZM161.54 14.6077H156.243V16.2358H161.54V14.6077ZM192.726 6.00342L197.826 24.4644H191.99L189.444 14.0421L192.726 6.00342ZM186.012 22.4454L181.049 13.1873L183.236 6.00342L188.466 16.4368L186.012 22.4454Z" fill="#F2933C"/>
<path d="M49.3682 24.7119H49.0034V25.0767H49.3682V24.7119ZM49.3682 1.25122V0.886449H49.0034V1.25122H49.3682ZM58.4754 1.25122H58.8402V0.886449H58.4754V1.25122ZM58.4754 24.7119V25.0767H58.8402V24.7119H58.4754ZM135 4.76746L135.225 5.05463L135.225 5.0546L135 4.76746ZM140.194 5.95587L140.55 5.87889L140.55 5.87886L140.194 5.95587ZM135 8.12433L135.225 7.83718L135.225 7.83715L135 8.12433ZM112.851 5.54279L112.851 5.17802L112.486 5.17718V5.54279H112.851ZM123.105 24.7125L123.081 25.0765L123.082 25.0765L123.105 24.7125ZM113.227 5.54364L113.228 5.17887L113.227 5.17887L113.227 5.54364ZM116.38 5.55054L116.381 5.18577H116.381L116.38 5.55054ZM120.626 5.55853L120.951 5.39241L120.85 5.19418L120.627 5.19376L120.626 5.55853ZM123.323 10.8306L123.648 10.6654L123.648 10.6645L123.323 10.8306ZM125.954 16.0092L125.629 16.1744L125.969 16.8443L126.285 16.1625L125.954 16.0092ZM127.093 13.5495L126.765 13.3906L126.762 13.3962L127.093 13.5495ZM129.291 8.914L129.623 9.06618L129.626 9.05709L129.291 8.914ZM130.428 6.42462L130.098 6.26781L130.098 6.26784L130.428 6.42462ZM130.574 6.11505L130.242 5.96439L130.242 5.96442L130.574 6.11505ZM130.841 5.54279V5.17801H130.601L130.506 5.39866L130.841 5.54279ZM132.072 5.54279L132.396 5.71035L132.671 5.17801H132.072V5.54279ZM126.22 18.0552L126.551 18.2083V18.2083L126.22 18.0552ZM125.158 20.3488L124.827 20.1954V20.1954L125.158 20.3488ZM124.032 22.7953L123.701 22.6434V22.6434L124.032 22.7953ZM141.512 5.47595V5.11118H141.147V5.47595H141.512ZM141.512 6.40112H141.147V6.76589H141.512V6.40112ZM157.917 5.54279H158.281V5.18133L157.92 5.17803L157.917 5.54279ZM157.917 6.40112V6.76589H158.281V6.40112H157.917ZM153.24 6.40112V6.03635H152.875V6.40112H153.24ZM153.24 24.7119V25.0767H153.605V24.7119H153.24ZM149.425 24.7119V24.3471H149.425L149.425 24.7119ZM145.917 24.7125H145.553V25.0774L145.917 25.0773L145.917 24.7125ZM145.917 6.40112H146.282V6.03635H145.917V6.40112ZM77.0591 9.83441L76.9153 9.49921L76.6943 9.59402V9.83441H77.0591ZM77.0591 10.9788V11.3436H77.4239V10.9788H77.0591ZM79.9967 8.32123L80.1718 8.64123L80.1718 8.64123L79.9967 8.32123ZM82.5973 6.97333H82.9621V6.41663L82.4517 6.63889L82.5973 6.97333ZM82.5973 10.9788H82.2325V11.3436H82.5973V10.9788ZM84.9357 10.9788H85.3004V10.614H84.9357V10.9788ZM84.9357 12.1232V12.488H85.3004V12.1232H84.9357ZM82.5973 12.1232V11.7585H82.2325V12.1232H82.5973ZM84.1426 22.4946L84.3826 22.7692L84.4032 22.7512L84.4209 22.7304L84.1426 22.4946ZM85.551 21.8508L85.9048 21.7619L85.8894 21.7008L85.8545 21.6484L85.551 21.8508ZM83.1213 24.3341L83.2459 24.677L83.2695 24.6684L83.2917 24.6567L83.1213 24.3341ZM78.4009 24.0503L78.1585 24.323L78.1642 24.3279L78.4009 24.0503ZM77.059 17.8243L77.4238 17.8244V17.8244L77.059 17.8243ZM77.0591 17.4077L77.4239 17.4078V17.4077H77.0591ZM77.0591 12.1232H77.4239V11.7585H77.0591V12.1232ZM75.2131 12.1232H74.8483V12.488H75.2131V12.1232ZM75.2131 10.9788V10.614H74.8483V10.9788H75.2131ZM134.041 24.7119H133.676V25.0767H134.041V24.7119ZM134.041 9.54828V9.18351H133.676V9.54828H134.041ZM137.241 9.54828L137.243 9.18351H137.241V9.54828ZM140.194 9.56995H140.559V9.20784L140.197 9.20518L140.194 9.56995ZM140.194 24.7125L140.194 25.0773L140.559 25.0774V24.7125H140.194ZM137.241 24.7119L137.241 24.3471H137.241V24.7119ZM60.1984 24.7119H59.8336V25.0767H60.1984V24.7119ZM60.1984 10.9788V10.614H59.8336V10.9788H60.1984ZM65.8597 10.9788H66.2244V10.614H65.8597V10.9788ZM65.8597 12.7052H65.4949V13.3449L66.0454 13.0191L65.8597 12.7052ZM67.1519 11.9404L66.9661 11.6265L66.9661 11.6265L67.1519 11.9404ZM72.8469 11.4117L73.0231 11.0923L73.023 11.0923L72.8469 11.4117ZM74.6779 19.2043H75.0428L75.0427 19.199L74.6779 19.2043ZM74.6779 24.7119V25.0767H75.0427V24.7119H74.6779ZM68.9231 24.7119L68.5584 24.7062L68.5526 25.0767H68.9231V24.7119ZM69.0122 19.0613L69.377 19.0671V19.0671L69.0122 19.0613ZM67.1509 13.1432L67.3338 13.4588L67.3338 13.4588L67.1509 13.1432ZM65.8597 13.8911L65.6768 13.5755L65.4949 13.6809V13.8911H65.8597ZM65.8597 24.7119V25.0767H66.2244V24.7119H65.8597ZM90.1046 11.513L90.2754 11.8353V11.8353L90.1046 11.513ZM86.5491 20.0469L86.9037 19.9615L86.9037 19.9615L86.5491 20.0469ZM95.5485 11.6661L95.7222 11.3453L95.7222 11.3453L95.5485 11.6661ZM98.8427 18.4176V18.7824H99.2074V18.4176H98.8427ZM91.4584 18.4176V18.0528H91.0884L91.0937 18.4228L91.4584 18.4176ZM91.4956 21.0031L91.8605 21.0084L91.8603 20.9979L91.4956 21.0031ZM93.253 23.7057L93.2193 24.069L93.2194 24.069L93.253 23.7057ZM93.3045 23.7105L93.2709 24.0737L93.3088 24.0772L93.3466 24.0728L93.3045 23.7105ZM96.8735 21.8508L96.5924 21.6184L96.5923 21.6185L96.8735 21.8508ZM95.8205 24.1809L95.6344 23.8672L95.6343 23.8672L95.8205 24.1809ZM90.4738 24.7182L90.5819 24.3698L90.5653 24.3646L90.5482 24.3611L90.4738 24.7182ZM100.812 24.7119H100.447V25.0767H100.812V24.7119ZM100.812 10.9788V10.614H100.447V10.9788H100.812ZM106.398 10.9788H106.763V10.614H106.398V10.9788ZM106.398 13.3603H106.033V14.1711L106.64 13.6332L106.398 13.3603ZM107.367 12.5015L107.609 12.7744L107.613 12.7711L107.367 12.5015ZM111.596 12.3241L111.956 12.3848L111.956 12.3847L111.596 12.3241ZM110.16 12.8488L110.158 12.4841H110.157L110.16 12.8488ZM107.124 14.3629L107.405 14.596L107.406 14.5939L107.124 14.3629ZM106.398 15.2363L106.118 15.0031L106.033 15.1045V15.2363H106.398ZM106.398 24.7119V25.0767H106.763V24.7119H106.398ZM93.6737 12.1232L93.9039 11.8403L93.8857 11.8254L93.8657 11.8131L93.6737 12.1232ZM91.9507 12.2663L91.7023 11.9992L91.6874 12.013L91.6742 12.0284L91.9507 12.2663ZM91.4584 17.5593H91.0936V17.924H91.4584V17.5593ZM94.166 17.5593V17.924H94.5307V17.5593H94.166ZM163.878 24.7675H163.514V25.1322H163.878V24.7675ZM163.878 5.59448V5.22971H163.514V5.59448H163.878ZM169.74 24.7675V25.1322H170.104V24.7675H169.74ZM169.74 5.59448H170.104V5.22971H169.74V5.59448ZM156.243 14.6077V14.243H155.879V14.6077H156.243ZM161.54 14.6077H161.905V14.243H161.54V14.6077ZM156.243 16.2358H155.879V16.6006H156.243V16.2358ZM161.54 16.2358V16.6006H161.905V16.2358H161.54ZM197.826 24.4644V24.8291H198.305L198.178 24.3672L197.826 24.4644ZM192.726 6.00342L193.078 5.90629L192.793 4.87509L192.389 5.86552L192.726 6.00342ZM191.99 24.4644L191.636 24.5509L191.704 24.8291H191.99V24.4644ZM189.444 14.0421L189.106 13.9042L189.061 14.0137L189.09 14.1286L189.444 14.0421ZM181.049 13.1873L180.7 13.081L180.656 13.226L180.727 13.3596L181.049 13.1873ZM186.012 22.4454L185.691 22.6178L186.057 23.3008L186.35 22.5833L186.012 22.4454ZM183.236 6.00342L183.562 5.83995L183.153 5.02375L182.887 5.89719L183.236 6.00342ZM188.466 16.4368L188.804 16.5747L188.866 16.4213L188.792 16.2733L188.466 16.4368ZM189.444 14.0421L189.782 14.18L189.826 14.0704L189.798 13.9555L189.444 14.0421ZM181.047 13.1841L181.369 13.0123L180.943 12.214L180.696 13.0846L181.047 13.1841ZM181.049 13.1873L181.398 13.2935L181.442 13.1489L181.371 13.0155L181.049 13.1873ZM49.0034 12.9816V24.7119H49.7329V12.9816H49.0034ZM49.0034 1.25122V12.9816H49.7329V1.25122H49.0034ZM53.9218 0.886449H49.3682V1.61599H53.9218V0.886449ZM58.4754 0.886449H53.9218V1.61599H58.4754V0.886449ZM58.8402 12.9816V1.25122H58.1106V12.9816H58.8402ZM58.8402 24.7119V12.9816H58.1106V24.7119H58.8402ZM53.9218 25.0767H58.4754V24.3471H53.9218V25.0767ZM49.3682 25.0767H53.9218V24.3471H49.3682V25.0767ZM134.775 4.48028C134.002 5.08643 133.676 5.68606 133.676 6.40112H134.406C134.406 5.97178 134.573 5.56543 135.225 5.05463L134.775 4.48028ZM140.55 5.87886C140.322 4.81923 139.258 4.14048 138.156 3.88374C137.038 3.62322 135.708 3.74986 134.775 4.48031L135.225 5.0546C135.932 4.50075 137.014 4.36686 137.991 4.59426C138.983 4.82544 139.697 5.38304 139.837 6.03288L140.55 5.87886ZM134.775 8.41148C135.983 9.3573 137.554 9.41938 138.75 8.92183C139.945 8.42438 140.86 7.31209 140.55 5.87889L139.837 6.03285C140.049 7.01207 139.456 7.83774 138.47 8.24827C137.483 8.65872 136.198 8.59882 135.225 7.83718L134.775 8.41148ZM133.676 6.40112C133.676 6.94389 133.975 7.78482 134.775 8.41151L135.225 7.83715C134.599 7.3469 134.406 6.71664 134.406 6.40112H133.676ZM112.486 5.54279C112.486 5.59587 112.498 5.63821 112.5 5.64803C112.505 5.66582 112.51 5.68172 112.515 5.69342C112.523 5.71727 112.534 5.74307 112.545 5.76805C112.567 5.81899 112.597 5.88538 112.635 5.96393C112.711 6.122 112.821 6.34263 112.96 6.61529C113.237 7.16127 113.633 7.92391 114.108 8.82934C115.058 10.6406 116.326 13.0277 117.598 15.4055C118.87 17.7832 120.148 20.1527 121.117 21.9287C121.602 22.8165 122.01 23.5571 122.302 24.0766C122.448 24.336 122.566 24.5424 122.651 24.6851C122.693 24.7558 122.729 24.8148 122.758 24.8579C122.771 24.8784 122.787 24.9019 122.804 24.9231C122.811 24.9326 122.826 24.9508 122.845 24.9698C122.855 24.979 122.873 24.9964 122.899 25.014C122.917 25.0258 122.983 25.0698 123.081 25.0765L123.13 24.3486C123.227 24.3551 123.291 24.3986 123.307 24.409C123.331 24.4254 123.348 24.441 123.355 24.4479C123.37 24.4622 123.378 24.4734 123.378 24.4737C123.38 24.4763 123.377 24.4725 123.367 24.457C123.348 24.4281 123.319 24.3805 123.278 24.3123C123.198 24.1773 123.083 23.9771 122.938 23.719C122.648 23.2035 122.242 22.4662 121.757 21.5792C120.789 19.8055 119.513 17.438 118.241 15.0613C116.969 12.6845 115.703 10.2994 114.754 8.49053C114.28 7.58592 113.885 6.82653 113.61 6.28473C113.472 6.01349 113.365 5.79878 113.293 5.64836C113.257 5.57266 113.231 5.51651 113.214 5.4789C113.206 5.4596 113.202 5.44963 113.201 5.44649C113.201 5.4447 113.202 5.44929 113.205 5.45801C113.205 5.45876 113.215 5.49428 113.215 5.54279H112.486ZM113.227 5.17887L112.851 5.17802L112.85 5.90756L113.226 5.90841L113.227 5.17887ZM116.381 5.18577C114.747 5.18278 113.732 5.18015 113.228 5.17887L113.226 5.90841C113.73 5.90969 114.746 5.91232 116.38 5.91531L116.381 5.18577ZM120.627 5.19376L116.381 5.18577L116.38 5.91531L120.626 5.9233L120.627 5.19376ZM123.648 10.6645L120.951 5.39241L120.301 5.72466L122.998 10.9968L123.648 10.6645ZM126.279 15.8439L123.648 10.6654L122.998 10.9958L125.629 16.1744L126.279 15.8439ZM126.762 13.3962L125.623 15.8558L126.285 16.1625L127.424 13.7028L126.762 13.3962ZM128.959 8.76188C128.31 10.1775 127.497 11.8776 126.765 13.3906L127.422 13.7084C128.155 12.194 128.97 10.4886 129.622 9.06612L128.959 8.76188ZM130.098 6.26784C129.855 6.77935 129.375 7.78794 128.955 8.77092L129.626 9.05709C130.039 8.08975 130.513 7.09382 130.757 6.5814L130.098 6.26784ZM130.242 5.96442C130.219 6.01364 130.17 6.11673 130.098 6.26781L130.757 6.58143C130.827 6.43466 130.88 6.32291 130.906 6.26568L130.242 5.96442ZM130.506 5.39866C130.447 5.53533 130.41 5.61391 130.374 5.68738C130.337 5.76278 130.298 5.84025 130.242 5.96439L130.906 6.26571C130.957 6.15377 130.99 6.08817 131.029 6.00799C131.069 5.92589 131.112 5.83638 131.176 5.68691L130.506 5.39866ZM132.072 5.17801H130.841V5.90756H132.072V5.17801ZM126.551 18.2083C128.498 13.9961 131.769 6.92219 132.396 5.71035L131.748 5.37522C131.111 6.60601 127.829 13.7047 125.889 17.9022L126.551 18.2083ZM125.489 20.5023C125.747 19.9477 126.115 19.1501 126.551 18.2083L125.889 17.9022C125.453 18.8441 125.084 19.6412 124.827 20.1954L125.489 20.5023ZM124.364 22.9473C124.658 22.3053 125.029 21.4945 125.489 20.5023L124.827 20.1954C124.367 21.1893 123.995 22.0014 123.701 22.6434L124.364 22.9473ZM123.082 25.0765C123.181 25.083 123.256 25.0481 123.291 25.0282C123.328 25.0068 123.355 24.9831 123.37 24.969C123.399 24.9407 123.42 24.9119 123.432 24.8953C123.458 24.8591 123.483 24.8159 123.505 24.7744C123.553 24.6882 123.614 24.564 123.69 24.4058C123.842 24.0874 124.063 23.604 124.364 22.9473L123.701 22.6434C123.398 23.303 123.18 23.7797 123.031 24.0916C122.956 24.2485 122.902 24.357 122.865 24.4243C122.856 24.4406 122.849 24.453 122.844 24.4622C122.838 24.4718 122.836 24.4753 122.836 24.4748C122.836 24.4743 122.838 24.4714 122.842 24.4668C122.846 24.4627 122.853 24.4538 122.864 24.4429C122.874 24.4334 122.897 24.4131 122.93 24.3939C122.962 24.3761 123.032 24.3423 123.129 24.3485L123.082 25.0765ZM141.147 5.47595V6.40112H141.877V5.47595H141.147ZM157.92 5.17803C153.385 5.13657 141.758 5.11118 141.512 5.11118V5.84072C141.758 5.84072 153.382 5.86611 157.913 5.90754L157.92 5.17803ZM158.281 6.40112V5.54279H157.552V6.40112H158.281ZM155.599 6.76589H157.917V6.03635H155.599V6.76589ZM153.24 6.76589H155.599V6.03635H153.24V6.76589ZM153.605 15.5565V6.40112H152.875V15.5565H153.605ZM153.605 24.7119V15.5565H152.875V24.7119H153.605ZM149.425 25.0767H153.24V24.3471H149.425V25.0767ZM145.917 25.0773L149.425 25.0767L149.425 24.3471L145.917 24.3478L145.917 25.0773ZM145.553 15.5565V24.7125H146.282V15.5565H145.553ZM145.553 6.40112V15.5565H146.282V6.40112H145.553ZM141.512 6.76589H145.917V6.03635H141.512V6.76589ZM76.6943 9.83441V10.9788H77.4239V9.83441H76.6943ZM79.8216 8.00123C78.761 8.58157 77.6938 9.16509 76.9153 9.49921L77.203 10.1696C78.021 9.81855 79.1238 9.21469 80.1718 8.64123L79.8216 8.00123ZM82.4517 6.63889C81.7611 6.93959 80.7927 7.46986 79.8216 8.00123L80.1718 8.64123C81.1559 8.10277 82.0899 7.59215 82.7429 7.30777L82.4517 6.63889ZM82.9621 9.11914V6.97333H82.2325V9.11914H82.9621ZM82.9621 10.9788V9.11914H82.2325V10.9788H82.9621ZM84.9357 10.614H82.5973V11.3436H84.9357V10.614ZM85.3004 12.1232V10.9788H84.5709V12.1232H85.3004ZM83.7049 12.488H84.9357V11.7585H83.7049V12.488ZM82.5973 12.488H83.7049V11.7585H82.5973V12.488ZM82.9621 22.4946V12.1232H82.2325V22.4946H82.9621ZM83.9025 22.2199C83.5174 22.5565 83.242 22.7796 83.0447 22.9132C82.9459 22.9801 82.8789 23.016 82.8366 23.0333C82.7898 23.0524 82.8053 23.0354 82.855 23.0443C82.9261 23.0571 82.973 23.1037 82.9909 23.1334C83.0001 23.1486 82.9912 23.1414 82.9819 23.0813C82.9631 22.96 82.9621 22.7755 82.9621 22.4946H82.2325C82.2325 22.7501 82.2315 23.0026 82.261 23.193C82.2758 23.2887 82.3032 23.4059 82.3667 23.5109C82.4389 23.6304 82.5583 23.7323 82.726 23.7624C82.8722 23.7887 83.0084 23.7512 83.1125 23.7087C83.2211 23.6643 83.3353 23.5975 83.4537 23.5173C83.691 23.3566 83.9951 23.1079 84.3826 22.7692L83.9025 22.2199ZM85.8545 21.6484C85.7868 21.547 85.6867 21.4131 85.5379 21.3275C85.3639 21.2274 85.1699 21.2176 84.9783 21.2842C84.807 21.3438 84.6397 21.4628 84.4708 21.6145C84.2975 21.7701 84.0983 21.9825 83.8643 22.2588L84.4209 22.7304C84.645 22.4659 84.82 22.2814 84.9583 22.1573C85.1008 22.0292 85.1823 21.9857 85.2178 21.9733C85.233 21.968 85.2039 21.977 85.174 21.9598C85.1692 21.9571 85.1921 21.9701 85.2475 22.0532L85.8545 21.6484ZM83.2917 24.6567C83.9139 24.3281 84.5814 23.8052 85.0793 23.3014C85.3284 23.0494 85.546 22.791 85.6959 22.5532C85.7708 22.4344 85.8353 22.3106 85.8761 22.1875C85.9153 22.0689 85.9439 21.9174 85.9048 21.7619L85.1973 21.9398C85.1889 21.9066 85.201 21.9052 85.1835 21.958C85.1675 22.0063 85.1348 22.0752 85.0788 22.1642C84.967 22.3415 84.7883 22.5579 84.5604 22.7886C84.1043 23.2501 83.4955 23.7241 82.951 24.0115L83.2917 24.6567ZM78.1642 24.3279C78.8681 24.9279 79.8237 25.1246 80.7306 25.1246C81.6435 25.1246 82.5606 24.9259 83.2459 24.677L82.9968 23.9913C82.3799 24.2153 81.5472 24.3951 80.7306 24.3951C79.908 24.3951 79.1545 24.2134 78.6375 23.7727L78.1642 24.3279ZM76.6943 17.8242C76.6937 20.0473 76.6915 21.3526 76.868 22.2435C76.9592 22.7037 77.1002 23.0695 77.319 23.4045C77.5345 23.7342 77.8149 24.0175 78.1585 24.3229L78.6432 23.7777C78.3153 23.4862 78.092 23.2538 77.9298 23.0054C77.771 22.7624 77.6602 22.4878 77.5837 22.1017C77.4248 21.3001 77.4232 20.0893 77.4238 17.8244L76.6943 17.8242ZM76.6943 17.4077L76.6943 17.8243L77.4238 17.8244L77.4239 17.4078L76.6943 17.4077ZM76.6943 12.1232V17.4077H77.4239V12.1232H76.6943ZM76.0866 12.488H77.0591V11.7585H76.0866V12.488ZM75.2131 12.488H76.0866V11.7585H75.2131V12.488ZM74.8483 10.9788V12.1232H75.5778V10.9788H74.8483ZM77.0591 10.614H75.2131V11.3436H77.0591V10.614ZM133.676 17.1301V24.7119H134.406V17.1301H133.676ZM133.676 9.54828V17.1301H134.406V9.54828H133.676ZM137.241 9.18351H134.041V9.91305H137.241V9.18351ZM140.197 9.20518L137.243 9.18352L137.238 9.91304L140.191 9.93471L140.197 9.20518ZM140.559 17.1301V9.56995H139.829V17.1301H140.559ZM140.559 24.7125V17.1301H139.829V24.7125H140.559ZM137.241 25.0767L140.194 25.0773L140.194 24.3478L137.241 24.3471L137.241 25.0767ZM134.041 25.0767H137.241V24.3471H134.041V25.0767ZM59.8336 17.8453V24.7119H60.5632V17.8453H59.8336ZM59.8336 10.9788V17.8453H60.5632V10.9788H59.8336ZM63.029 10.614H60.1984V11.3436H63.029V10.614ZM65.8597 10.614H63.029V11.3436H65.8597V10.614ZM66.2244 11.842V10.9788H65.4949V11.842H66.2244ZM66.2244 12.7052V11.842H65.4949V12.7052H66.2244ZM66.9661 11.6265L65.6739 12.3913L66.0454 13.0191L67.3377 12.2543L66.9661 11.6265ZM73.023 11.0923C72.2687 10.6763 71.1888 10.5582 70.1107 10.6583C69.0237 10.7592 67.8775 11.0872 66.9661 11.6265L67.3377 12.2543C68.1397 11.7797 69.1777 11.4776 70.1781 11.3847C71.1875 11.291 72.0984 11.4155 72.6707 11.7311L73.023 11.0923ZM75.0427 19.199C74.9975 16.0999 74.9357 14.3221 74.6753 13.214C74.542 12.6465 74.3511 12.2264 74.0656 11.8858C73.7832 11.5491 73.4298 11.3166 73.0231 11.0923L72.6707 11.7311C73.0531 11.9421 73.3118 12.1223 73.5065 12.3546C73.6981 12.583 73.8493 12.8881 73.9651 13.3809C74.203 14.3934 74.2675 16.0765 74.3132 19.2097L75.0427 19.199ZM75.0427 24.7119V19.2043H74.3132V24.7119H75.0427ZM71.8409 25.0767H74.6779V24.3471H71.8409V25.0767ZM68.9231 25.0767H71.8409V24.3471H68.9231V25.0767ZM68.6475 19.0556L68.5584 24.7062L69.2879 24.7177L69.377 19.0671L68.6475 19.0556ZM67.3338 13.4588C67.5768 13.3181 67.778 13.2038 67.9505 13.1198C68.1266 13.034 68.2448 12.994 68.324 12.9828C68.3603 12.9777 68.3789 12.9802 68.3856 12.9816C68.3901 12.9826 68.3914 12.9833 68.3944 12.9856C68.4052 12.994 68.4505 13.0385 68.4998 13.1952C68.6004 13.5149 68.6563 14.0922 68.6747 15.0651C68.6928 16.0243 68.6748 17.3226 68.6475 19.0556L69.377 19.0671C69.4042 17.3384 69.4225 16.0259 69.4041 15.0513C69.386 14.0904 69.3324 13.4108 69.1958 12.9764C69.1265 12.7561 69.0213 12.5492 68.8428 12.4101C68.6503 12.2601 68.4287 12.2313 68.2221 12.2604C68.0276 12.2879 67.8266 12.3686 67.6309 12.4639C67.4316 12.561 67.2086 12.6882 66.9681 12.8275L67.3338 13.4588ZM66.0425 14.2068L67.3338 13.4588L66.9681 12.8275L65.6768 13.5755L66.0425 14.2068ZM66.2244 19.3013V13.8911H65.4949V19.3013H66.2244ZM66.2244 24.7119V19.3013H65.4949V24.7119H66.2244ZM63.029 25.0767H65.8597V24.3471H63.029V25.0767ZM60.1984 25.0767H63.029V24.3471H60.1984V25.0767ZM89.9338 11.1907C86.8127 12.8447 85.3149 16.4817 86.1945 20.1324L86.9037 19.9615C86.0938 16.5997 87.4794 13.317 90.2754 11.8353L89.9338 11.1907ZM95.7222 11.3453C94.8689 10.8835 93.8145 10.6416 92.7889 10.6128C91.7653 10.584 90.7342 10.7665 89.9338 11.1907L90.2754 11.8353C90.9344 11.4861 91.8317 11.3157 92.7684 11.342C93.7032 11.3683 94.641 11.5897 95.3749 11.9869L95.7222 11.3453ZM99.2074 17.407C99.2074 16.2104 98.8293 14.9662 98.213 13.8922C97.5972 12.819 96.7289 11.8902 95.7222 11.3453L95.3749 11.9869C96.2376 12.4539 97.0164 13.2725 97.5803 14.2552C98.1437 15.2372 98.4779 16.3575 98.4779 17.407H99.2074ZM99.2074 18.4176V17.407H98.4779V18.4176H99.2074ZM95.1262 18.7824H98.8427V18.0528H95.1262V18.7824ZM91.4584 18.7824H95.1262V18.0528H91.4584V18.7824ZM91.8603 20.9979L91.8231 18.4124L91.0937 18.4228L91.1308 21.0084L91.8603 20.9979ZM93.2868 23.3425C92.8968 23.3063 92.629 23.2803 92.4252 23.2275C92.2355 23.1784 92.1456 23.1164 92.0844 23.0344C92.0134 22.9393 91.9453 22.7689 91.9035 22.4307C91.8622 22.0961 91.8512 21.6402 91.8603 21.0084L91.1308 20.9978C91.1216 21.634 91.1316 22.1324 91.1795 22.5202C91.2269 22.9045 91.3162 23.2248 91.4997 23.4707C91.693 23.7298 91.9546 23.8592 92.2422 23.9338C92.5159 24.0047 92.8513 24.0348 93.2193 24.069L93.2868 23.3425ZM93.3381 23.3473L93.2866 23.3425L93.2194 24.069L93.2709 24.0737L93.3381 23.3473ZM96.5923 21.6185C95.6492 22.7598 94.4278 23.2128 93.2624 23.3482L93.3466 24.0728C94.6426 23.9223 96.0598 23.4082 97.1547 22.0832L96.5923 21.6185ZM98.9613 21.2489C98.9613 20.9993 98.9082 20.7144 98.6891 20.5355C98.4524 20.3423 98.1641 20.3818 97.9565 20.4598C97.5467 20.6137 97.0644 21.0473 96.5924 21.6184L97.1547 22.0832C97.615 21.5263 97.9943 21.2249 98.2129 21.1428C98.3194 21.1028 98.2871 21.1491 98.2278 21.1007C98.186 21.0666 98.2318 21.0645 98.2318 21.2489H98.9613ZM96.0067 24.4946C96.7471 24.0552 97.4673 23.4648 98.0058 22.896C98.275 22.6117 98.506 22.3252 98.6721 22.0585C98.8301 21.8046 98.9613 21.5191 98.9613 21.2489H98.2318C98.2318 21.3072 98.1934 21.447 98.0528 21.6728C97.9202 21.8857 97.7234 22.1333 97.476 22.3945C96.9815 22.9168 96.3137 23.464 95.6344 23.8672L96.0067 24.4946ZM90.3658 25.0666C91.1917 25.3228 92.263 25.3757 93.2793 25.2736C94.2932 25.1717 95.3066 24.9101 96.0067 24.4946L95.6343 23.8672C95.0614 24.2073 94.1655 24.4514 93.2063 24.5477C92.2496 24.6439 91.284 24.5876 90.5819 24.3698L90.3658 25.0666ZM86.1945 20.1323C86.4305 21.1122 86.9083 22.2181 87.6049 23.1415C88.3004 24.0635 89.238 24.8336 90.3995 25.0753L90.5482 24.3611C89.6175 24.1674 88.8183 23.5386 88.1873 22.7021C87.5574 21.8671 87.1189 20.8551 86.9037 19.9615L86.1945 20.1323ZM100.447 17.8453V24.7119H101.177V17.8453H100.447ZM100.447 10.9788V17.8453H101.177V10.9788H100.447ZM103.787 10.614H100.812V11.3436H103.787V10.614ZM106.398 10.614H103.787V11.3436H106.398V10.614ZM106.763 12.1146V10.9788H106.033V12.1146H106.763ZM106.763 13.3603V12.1146H106.033V13.3603H106.763ZM107.125 12.2285L106.156 13.0873L106.64 13.6332L107.609 12.7744L107.125 12.2285ZM110.242 10.614C109.71 10.614 109.266 10.698 108.774 10.9586C108.301 11.2096 107.795 11.6182 107.121 12.2319L107.613 12.7711C108.283 12.1602 108.73 11.8075 109.116 11.6033C109.483 11.4087 109.805 11.3436 110.242 11.3436V10.614ZM111.956 12.3847C112.04 11.8853 111.909 11.4252 111.576 11.0947C111.251 10.772 110.776 10.614 110.242 10.614V11.3436C110.641 11.3436 110.91 11.461 111.062 11.6123C111.207 11.7558 111.286 11.9684 111.236 12.2635L111.956 12.3847ZM110.163 13.2136C110.701 13.2095 111.107 13.186 111.389 13.0829C111.543 13.0263 111.682 12.9391 111.786 12.8031C111.887 12.6707 111.933 12.5222 111.956 12.3848L111.236 12.2634C111.224 12.3353 111.21 12.356 111.207 12.3599C111.206 12.3602 111.196 12.3765 111.138 12.3977C110.994 12.4503 110.717 12.4798 110.158 12.4841L110.163 13.2136ZM107.406 14.5939C107.913 13.9755 108.254 13.6525 108.624 13.4683C108.989 13.2859 109.423 13.2193 110.163 13.2136L110.157 12.4841C109.391 12.49 108.818 12.5559 108.298 12.8154C107.782 13.073 107.358 13.5011 106.842 14.1318L107.406 14.5939ZM106.679 15.4694L107.405 14.596L106.844 14.1297L106.118 15.0031L106.679 15.4694ZM106.763 20.1716V15.2363H106.033V20.1716H106.763ZM106.763 24.7119V20.1716H106.033V24.7119H106.763ZM103.704 25.0767H106.398V24.3471H103.704V25.0767ZM100.812 25.0767H103.704V24.3471H100.812V25.0767ZM93.4435 12.4062C93.5383 12.4833 93.5941 12.5496 93.635 12.6277C93.6781 12.7101 93.7158 12.8271 93.7432 13.0203C93.8002 13.4215 93.8012 14.0428 93.8012 15.1437H94.5307C94.5307 14.0724 94.5317 13.3837 94.4655 12.9177C94.4314 12.6773 94.3767 12.4715 94.2814 12.2894C94.1838 12.1031 94.0551 11.9633 93.9039 11.8403L93.4435 12.4062ZM92.1991 12.5334C92.492 12.261 92.6614 12.1833 92.7958 12.1723C92.9344 12.161 93.1255 12.2128 93.4817 12.4334L93.8657 11.8131C93.4835 11.5765 93.1207 11.4138 92.7363 11.4452C92.3477 11.477 92.0247 11.6994 91.7023 11.9992L92.1991 12.5334ZM91.8232 15.2704C91.8232 14.3139 91.8443 13.7096 91.911 13.289C91.975 12.8846 92.0769 12.6789 92.2272 12.5042L91.6742 12.0284C91.4142 12.3306 91.2699 12.6732 91.1904 13.1748C91.1135 13.6601 91.0936 14.3194 91.0936 15.2704H91.8232ZM91.8232 17.5593V15.2704H91.0936V17.5593H91.8232ZM92.8122 17.1945H91.4584V17.924H92.8122V17.1945ZM94.166 17.1945H92.8122V17.924H94.166V17.1945ZM93.8012 15.1437V17.5593H94.5307V15.1437H93.8012ZM164.243 24.7675V5.59448H163.514V24.7675H164.243ZM169.74 24.4027H163.878V25.1322H169.74V24.4027ZM169.375 20.0509V24.7675H170.104V20.0509H169.375ZM169.375 5.59448V20.0509H170.104V5.59448H169.375ZM163.878 5.95925H169.74V5.22971H163.878V5.95925ZM156.243 14.9725H161.54V14.243H156.243V14.9725ZM156.608 16.2358V14.6077H155.879V16.2358H156.608ZM161.54 15.8711H156.243V16.6006H161.54V15.8711ZM161.176 14.6077V16.2358H161.905V14.6077H161.176ZM198.178 24.3672L193.078 5.90629L192.375 6.10055L197.475 24.5615L198.178 24.3672ZM191.99 24.8291H197.826V24.0996H191.99V24.8291ZM189.09 14.1286L191.636 24.5509L192.344 24.3778L189.798 13.9555L189.09 14.1286ZM192.389 5.86552L189.106 13.9042L189.782 14.1799L193.064 6.14131L192.389 5.86552ZM180.727 13.3596L185.691 22.6178L186.334 22.2731L181.37 13.0149L180.727 13.3596ZM182.887 5.89719L180.7 13.081L181.398 13.2935L183.585 6.10965L182.887 5.89719ZM188.792 16.2733L183.562 5.83995L182.91 6.16689L188.14 16.6002L188.792 16.2733ZM186.35 22.5833L188.804 16.5747L188.128 16.2989L185.675 22.3075L186.35 22.5833ZM169.756 5.95888C171.037 5.90121 172.961 6.19819 174.552 7.26206C176.122 8.31142 177.4 10.1249 177.4 13.1841H178.129C178.129 9.8824 176.731 7.84086 174.958 6.65551C173.206 5.48467 171.118 5.16728 169.723 5.23008L169.756 5.95888ZM177.4 13.1841C177.4 16.2415 176.125 17.9245 174.572 18.8226C172.99 19.7374 171.072 19.8628 169.788 19.6894L169.691 20.4124C171.082 20.6004 173.176 20.4728 174.938 19.4541C176.728 18.4186 178.129 16.4875 178.129 13.1841H177.4ZM189.082 14.0993L189.09 14.1286L189.798 13.9555L189.791 13.9262L189.082 14.0993ZM188.804 16.5747L189.782 14.18L189.106 13.9042L188.128 16.2989L188.804 16.5747ZM180.696 13.0846L180.661 13.2105L181.363 13.4094L181.398 13.2835L180.696 13.0846ZM180.661 13.2105L177.413 24.668L178.115 24.8669L181.363 13.4094L180.661 13.2105ZM181.361 13.4162L181.398 13.2935L180.7 13.081L180.663 13.2037L181.361 13.4162ZM181.371 13.0155L181.369 13.0123L180.725 13.3558L180.727 13.359L181.371 13.0155Z" fill="#F2933C"/>
<path d="M51.16 39.045C50.77 39.045 50.401 38.991 50.053 38.883C49.705 38.769 49.432 38.628 49.234 38.46L49.522 37.956C49.714 38.1 49.96 38.226 50.26 38.334C50.56 38.436 50.875 38.487 51.205 38.487C51.655 38.487 51.979 38.418 52.177 38.28C52.375 38.136 52.474 37.947 52.474 37.713C52.474 37.539 52.417 37.404 52.303 37.308C52.195 37.206 52.051 37.131 51.871 37.083C51.691 37.029 51.49 36.984 51.268 36.948C51.046 36.912 50.824 36.87 50.602 36.822C50.386 36.774 50.188 36.705 50.008 36.615C49.828 36.519 49.681 36.39 49.567 36.228C49.459 36.066 49.405 35.85 49.405 35.58C49.405 35.322 49.477 35.091 49.621 34.887C49.765 34.683 49.975 34.524 50.251 34.41C50.533 34.29 50.875 34.23 51.277 34.23C51.583 34.23 51.889 34.272 52.195 34.356C52.501 34.434 52.753 34.539 52.951 34.671L52.672 35.184C52.462 35.04 52.237 34.938 51.997 34.878C51.757 34.812 51.517 34.779 51.277 34.779C50.851 34.779 50.536 34.854 50.332 35.004C50.134 35.148 50.035 35.334 50.035 35.562C50.035 35.742 50.089 35.883 50.197 35.985C50.311 36.087 50.458 36.168 50.638 36.228C50.824 36.282 51.025 36.327 51.241 36.363C51.463 36.399 51.682 36.444 51.898 36.498C52.12 36.546 52.321 36.615 52.501 36.705C52.687 36.789 52.834 36.912 52.942 37.074C53.056 37.23 53.113 37.437 53.113 37.695C53.113 37.971 53.035 38.211 52.879 38.415C52.729 38.613 52.507 38.769 52.213 38.883C51.925 38.991 51.574 39.045 51.16 39.045ZM56.7245 39.045C56.3165 39.045 55.9475 38.952 55.6175 38.766C55.2875 38.574 55.0235 38.301 54.8255 37.947C54.6335 37.587 54.5375 37.149 54.5375 36.633C54.5375 36.117 54.6335 35.682 54.8255 35.328C55.0175 34.968 55.2785 34.695 55.6085 34.509C55.9385 34.323 56.3105 34.23 56.7245 34.23C57.1745 34.23 57.5765 34.332 57.9305 34.536C58.2905 34.734 58.5725 35.016 58.7765 35.382C58.9805 35.742 59.0825 36.159 59.0825 36.633C59.0825 37.113 58.9805 37.533 58.7765 37.893C58.5725 38.253 58.2905 38.535 57.9305 38.739C57.5765 38.943 57.1745 39.045 56.7245 39.045ZM54.2855 40.746V34.275H54.8975V35.697L54.8345 36.642L54.9245 37.596V40.746H54.2855ZM56.6795 38.478C57.0155 38.478 57.3155 38.403 57.5795 38.253C57.8435 38.097 58.0535 37.881 58.2095 37.605C58.3655 37.323 58.4435 36.999 58.4435 36.633C58.4435 36.267 58.3655 35.946 58.2095 35.67C58.0535 35.394 57.8435 35.178 57.5795 35.022C57.3155 34.866 57.0155 34.788 56.6795 34.788C56.3435 34.788 56.0405 34.866 55.7705 35.022C55.5065 35.178 55.2965 35.394 55.1405 35.67C54.9905 35.946 54.9155 36.267 54.9155 36.633C54.9155 36.999 54.9905 37.323 55.1405 37.605C55.2965 37.881 55.5065 38.097 55.7705 38.253C56.0405 38.403 56.3435 38.478 56.6795 38.478ZM63.3198 39V37.956L63.2928 37.785V36.039C63.2928 35.637 63.1788 35.328 62.9508 35.112C62.7288 34.896 62.3958 34.788 61.9518 34.788C61.6458 34.788 61.3548 34.839 61.0788 34.941C60.8028 35.043 60.5688 35.178 60.3768 35.346L60.0888 34.869C60.3288 34.665 60.6168 34.509 60.9528 34.401C61.2888 34.287 61.6428 34.23 62.0148 34.23C62.6268 34.23 63.0978 34.383 63.4278 34.689C63.7638 34.989 63.9318 35.448 63.9318 36.066V39H63.3198ZM61.6908 39.045C61.3368 39.045 61.0278 38.988 60.7638 38.874C60.5058 38.754 60.3078 38.592 60.1698 38.388C60.0318 38.178 59.9628 37.938 59.9628 37.668C59.9628 37.422 60.0198 37.2 60.1338 37.002C60.2538 36.798 60.4458 36.636 60.7098 36.516C60.9798 36.39 61.3398 36.327 61.7898 36.327H63.4188V36.804H61.8078C61.3518 36.804 61.0338 36.885 60.8538 37.047C60.6798 37.209 60.5928 37.41 60.5928 37.65C60.5928 37.92 60.6978 38.136 60.9078 38.298C61.1178 38.46 61.4118 38.541 61.7898 38.541C62.1498 38.541 62.4588 38.46 62.7168 38.298C62.9808 38.13 63.1728 37.89 63.2928 37.578L63.4368 38.019C63.3168 38.331 63.1068 38.58 62.8068 38.766C62.5128 38.952 62.1408 39.045 61.6908 39.045ZM65.6674 39V34.275H66.2794V35.562L66.2164 35.337C66.3484 34.977 66.5704 34.704 66.8824 34.518C67.1944 34.326 67.5814 34.23 68.0434 34.23V34.851C68.0194 34.851 67.9954 34.851 67.9714 34.851C67.9474 34.845 67.9234 34.842 67.8994 34.842C67.4014 34.842 67.0114 34.995 66.7294 35.301C66.4474 35.601 66.3064 36.03 66.3064 36.588V39H65.6674ZM71.1724 39.045C70.6804 39.045 70.2484 38.943 69.8764 38.739C69.5044 38.529 69.2134 38.244 69.0034 37.884C68.7934 37.518 68.6884 37.101 68.6884 36.633C68.6884 36.165 68.7874 35.751 68.9854 35.391C69.1894 35.031 69.4654 34.749 69.8134 34.545C70.1674 34.335 70.5634 34.23 71.0014 34.23C71.4454 34.23 71.8384 34.332 72.1804 34.536C72.5284 34.734 72.8014 35.016 72.9994 35.382C73.1974 35.742 73.2964 36.159 73.2964 36.633C73.2964 36.663 73.2934 36.696 73.2874 36.732C73.2874 36.762 73.2874 36.795 73.2874 36.831H69.1744V36.354H72.9454L72.6934 36.543C72.6934 36.201 72.6184 35.898 72.4684 35.634C72.3244 35.364 72.1264 35.154 71.8744 35.004C71.6224 34.854 71.3314 34.779 71.0014 34.779C70.6774 34.779 70.3864 34.854 70.1284 35.004C69.8704 35.154 69.6694 35.364 69.5254 35.634C69.3814 35.904 69.3094 36.213 69.3094 36.561V36.66C69.3094 37.02 69.3874 37.338 69.5434 37.614C69.7054 37.884 69.9274 38.097 70.2094 38.253C70.4974 38.403 70.8244 38.478 71.1904 38.478C71.4784 38.478 71.7454 38.427 71.9914 38.325C72.2434 38.223 72.4594 38.067 72.6394 37.857L72.9994 38.271C72.7894 38.523 72.5254 38.715 72.2074 38.847C71.8954 38.979 71.5504 39.045 71.1724 39.045ZM79.3915 39.045C78.9835 39.045 78.6145 38.952 78.2845 38.766C77.9545 38.574 77.6905 38.301 77.4925 37.947C77.3005 37.587 77.2045 37.149 77.2045 36.633C77.2045 36.117 77.3005 35.682 77.4925 35.328C77.6845 34.968 77.9455 34.695 78.2755 34.509C78.6055 34.323 78.9775 34.23 79.3915 34.23C79.8415 34.23 80.2435 34.332 80.5975 34.536C80.9575 34.734 81.2395 35.016 81.4435 35.382C81.6475 35.742 81.7495 36.159 81.7495 36.633C81.7495 37.113 81.6475 37.533 81.4435 37.893C81.2395 38.253 80.9575 38.535 80.5975 38.739C80.2435 38.943 79.8415 39.045 79.3915 39.045ZM76.9525 40.746V34.275H77.5645V35.697L77.5015 36.642L77.5915 37.596V40.746H76.9525ZM79.3465 38.478C79.6825 38.478 79.9825 38.403 80.2465 38.253C80.5105 38.097 80.7205 37.881 80.8765 37.605C81.0325 37.323 81.1105 36.999 81.1105 36.633C81.1105 36.267 81.0325 35.946 80.8765 35.67C80.7205 35.394 80.5105 35.178 80.2465 35.022C79.9825 34.866 79.6825 34.788 79.3465 34.788C79.0105 34.788 78.7075 34.866 78.4375 35.022C78.1735 35.178 77.9635 35.394 77.8075 35.67C77.6575 35.946 77.5825 36.267 77.5825 36.633C77.5825 36.999 77.6575 37.323 77.8075 37.605C77.9635 37.881 78.1735 38.097 78.4375 38.253C78.7075 38.403 79.0105 38.478 79.3465 38.478ZM85.9868 39V37.956L85.9598 37.785V36.039C85.9598 35.637 85.8458 35.328 85.6178 35.112C85.3958 34.896 85.0628 34.788 84.6188 34.788C84.3128 34.788 84.0218 34.839 83.7458 34.941C83.4698 35.043 83.2358 35.178 83.0438 35.346L82.7558 34.869C82.9958 34.665 83.2838 34.509 83.6198 34.401C83.9558 34.287 84.3098 34.23 84.6818 34.23C85.2938 34.23 85.7648 34.383 86.0948 34.689C86.4308 34.989 86.5988 35.448 86.5988 36.066V39H85.9868ZM84.3578 39.045C84.0038 39.045 83.6948 38.988 83.4308 38.874C83.1728 38.754 82.9748 38.592 82.8368 38.388C82.6988 38.178 82.6298 37.938 82.6298 37.668C82.6298 37.422 82.6868 37.2 82.8008 37.002C82.9208 36.798 83.1128 36.636 83.3768 36.516C83.6468 36.39 84.0068 36.327 84.4568 36.327H86.0858V36.804H84.4748C84.0188 36.804 83.7008 36.885 83.5208 37.047C83.3468 37.209 83.2598 37.41 83.2598 37.65C83.2598 37.92 83.3648 38.136 83.5748 38.298C83.7848 38.46 84.0788 38.541 84.4568 38.541C84.8168 38.541 85.1258 38.46 85.3838 38.298C85.6478 38.13 85.8398 37.89 85.9598 37.578L86.1038 38.019C85.9838 38.331 85.7738 38.58 85.4738 38.766C85.1798 38.952 84.8078 39.045 84.3578 39.045ZM88.3344 39V34.275H88.9464V35.562L88.8834 35.337C89.0154 34.977 89.2374 34.704 89.5494 34.518C89.8614 34.326 90.2484 34.23 90.7104 34.23V34.851C90.6864 34.851 90.6624 34.851 90.6384 34.851C90.6144 34.845 90.5904 34.842 90.5664 34.842C90.0684 34.842 89.6784 34.995 89.3964 35.301C89.1144 35.601 88.9734 36.03 88.9734 36.588V39H88.3344ZM93.5725 39.045C93.1285 39.045 92.7865 38.925 92.5465 38.685C92.3065 38.445 92.1865 38.106 92.1865 37.668V33.231H92.8255V37.632C92.8255 37.908 92.8945 38.121 93.0325 38.271C93.1765 38.421 93.3805 38.496 93.6445 38.496C93.9265 38.496 94.1605 38.415 94.3465 38.253L94.5715 38.712C94.4455 38.826 94.2925 38.91 94.1125 38.964C93.9385 39.018 93.7585 39.045 93.5725 39.045ZM91.3405 34.806V34.275H94.2655V34.806H91.3405ZM97.0038 39.045C96.6138 39.045 96.2448 38.991 95.8968 38.883C95.5488 38.769 95.2758 38.628 95.0778 38.46L95.3658 37.956C95.5578 38.1 95.8038 38.226 96.1038 38.334C96.4038 38.436 96.7188 38.487 97.0488 38.487C97.4988 38.487 97.8228 38.418 98.0208 38.28C98.2188 38.136 98.3178 37.947 98.3178 37.713C98.3178 37.539 98.2608 37.404 98.1468 37.308C98.0388 37.206 97.8948 37.131 97.7148 37.083C97.5348 37.029 97.3338 36.984 97.1118 36.948C96.8898 36.912 96.6678 36.87 96.4458 36.822C96.2298 36.774 96.0318 36.705 95.8518 36.615C95.6718 36.519 95.5248 36.39 95.4108 36.228C95.3028 36.066 95.2488 35.85 95.2488 35.58C95.2488 35.322 95.3208 35.091 95.4648 34.887C95.6088 34.683 95.8188 34.524 96.0948 34.41C96.3768 34.29 96.7188 34.23 97.1208 34.23C97.4268 34.23 97.7328 34.272 98.0388 34.356C98.3448 34.434 98.5968 34.539 98.7948 34.671L98.5158 35.184C98.3058 35.04 98.0808 34.938 97.8408 34.878C97.6008 34.812 97.3608 34.779 97.1208 34.779C96.6948 34.779 96.3798 34.854 96.1758 35.004C95.9778 35.148 95.8788 35.334 95.8788 35.562C95.8788 35.742 95.9328 35.883 96.0408 35.985C96.1548 36.087 96.3018 36.168 96.4818 36.228C96.6678 36.282 96.8688 36.327 97.0848 36.363C97.3068 36.399 97.5258 36.444 97.7418 36.498C97.9638 36.546 98.1648 36.615 98.3448 36.705C98.5308 36.789 98.6778 36.912 98.7858 37.074C98.8998 37.23 98.9568 37.437 98.9568 37.695C98.9568 37.971 98.8788 38.211 98.7228 38.415C98.5728 38.613 98.3508 38.769 98.0568 38.883C97.7688 38.991 97.4178 39.045 97.0038 39.045ZM102.593 39V33.681C102.593 33.261 102.716 32.922 102.962 32.664C103.208 32.406 103.562 32.277 104.024 32.277C104.204 32.277 104.378 32.301 104.546 32.349C104.714 32.397 104.855 32.472 104.969 32.574L104.753 33.051C104.663 32.973 104.558 32.916 104.438 32.88C104.318 32.838 104.189 32.817 104.051 32.817C103.781 32.817 103.574 32.892 103.43 33.042C103.286 33.192 103.214 33.414 103.214 33.708V34.428L103.232 34.725V39H102.593ZM101.747 34.806V34.275H104.672V34.806H101.747ZM107.381 39.045C106.925 39.045 106.514 38.943 106.148 38.739C105.788 38.529 105.503 38.244 105.293 37.884C105.083 37.518 104.978 37.101 104.978 36.633C104.978 36.159 105.083 35.742 105.293 35.382C105.503 35.022 105.788 34.74 106.148 34.536C106.508 34.332 106.919 34.23 107.381 34.23C107.849 34.23 108.263 34.332 108.623 34.536C108.989 34.74 109.274 35.022 109.478 35.382C109.688 35.742 109.793 36.159 109.793 36.633C109.793 37.101 109.688 37.518 109.478 37.884C109.274 38.244 108.989 38.529 108.623 38.739C108.257 38.943 107.843 39.045 107.381 39.045ZM107.381 38.478C107.723 38.478 108.026 38.403 108.29 38.253C108.554 38.097 108.761 37.881 108.911 37.605C109.067 37.323 109.145 36.999 109.145 36.633C109.145 36.261 109.067 35.937 108.911 35.661C108.761 35.385 108.554 35.172 108.29 35.022C108.026 34.866 107.726 34.788 107.39 34.788C107.054 34.788 106.754 34.866 106.49 35.022C106.226 35.172 106.016 35.385 105.86 35.661C105.704 35.937 105.626 36.261 105.626 36.633C105.626 36.999 105.704 37.323 105.86 37.605C106.016 37.881 106.226 38.097 106.49 38.253C106.754 38.403 107.051 38.478 107.381 38.478ZM111.098 39V34.275H111.71V35.562L111.647 35.337C111.779 34.977 112.001 34.704 112.313 34.518C112.625 34.326 113.012 34.23 113.474 34.23V34.851C113.45 34.851 113.426 34.851 113.402 34.851C113.378 34.845 113.354 34.842 113.33 34.842C112.832 34.842 112.442 34.995 112.16 35.301C111.878 35.601 111.737 36.03 111.737 36.588V39H111.098ZM119.505 39.045C119.097 39.045 118.728 38.952 118.398 38.766C118.068 38.574 117.804 38.301 117.606 37.947C117.414 37.587 117.318 37.149 117.318 36.633C117.318 36.117 117.414 35.682 117.606 35.328C117.798 34.968 118.059 34.695 118.389 34.509C118.719 34.323 119.091 34.23 119.505 34.23C119.955 34.23 120.357 34.332 120.711 34.536C121.071 34.734 121.353 35.016 121.557 35.382C121.761 35.742 121.863 36.159 121.863 36.633C121.863 37.113 121.761 37.533 121.557 37.893C121.353 38.253 121.071 38.535 120.711 38.739C120.357 38.943 119.955 39.045 119.505 39.045ZM117.066 40.746V34.275H117.678V35.697L117.615 36.642L117.705 37.596V40.746H117.066ZM119.46 38.478C119.796 38.478 120.096 38.403 120.36 38.253C120.624 38.097 120.834 37.881 120.99 37.605C121.146 37.323 121.224 36.999 121.224 36.633C121.224 36.267 121.146 35.946 120.99 35.67C120.834 35.394 120.624 35.178 120.36 35.022C120.096 34.866 119.796 34.788 119.46 34.788C119.124 34.788 118.821 34.866 118.551 35.022C118.287 35.178 118.077 35.394 117.921 35.67C117.771 35.946 117.696 36.267 117.696 36.633C117.696 36.999 117.771 37.323 117.921 37.605C118.077 37.881 118.287 38.097 118.551 38.253C118.821 38.403 119.124 38.478 119.46 38.478ZM125.091 39.045C124.635 39.045 124.224 38.943 123.858 38.739C123.498 38.529 123.213 38.244 123.003 37.884C122.793 37.518 122.688 37.101 122.688 36.633C122.688 36.159 122.793 35.742 123.003 35.382C123.213 35.022 123.498 34.74 123.858 34.536C124.218 34.332 124.629 34.23 125.091 34.23C125.559 34.23 125.973 34.332 126.333 34.536C126.699 34.74 126.984 35.022 127.188 35.382C127.398 35.742 127.503 36.159 127.503 36.633C127.503 37.101 127.398 37.518 127.188 37.884C126.984 38.244 126.699 38.529 126.333 38.739C125.967 38.943 125.553 39.045 125.091 39.045ZM125.091 38.478C125.433 38.478 125.736 38.403 126 38.253C126.264 38.097 126.471 37.881 126.621 37.605C126.777 37.323 126.855 36.999 126.855 36.633C126.855 36.261 126.777 35.937 126.621 35.661C126.471 35.385 126.264 35.172 126 35.022C125.736 34.866 125.436 34.788 125.1 34.788C124.764 34.788 124.464 34.866 124.2 35.022C123.936 35.172 123.726 35.385 123.57 35.661C123.414 35.937 123.336 36.261 123.336 36.633C123.336 36.999 123.414 37.323 123.57 37.605C123.726 37.881 123.936 38.097 124.2 38.253C124.464 38.403 124.761 38.478 125.091 38.478ZM130.761 39.045C130.359 39.045 130.008 38.97 129.708 38.82C129.408 38.67 129.174 38.445 129.006 38.145C128.844 37.845 128.763 37.47 128.763 37.02V34.275H129.402V36.948C129.402 37.452 129.525 37.833 129.771 38.091C130.023 38.343 130.374 38.469 130.824 38.469C131.154 38.469 131.439 38.403 131.679 38.271C131.925 38.133 132.111 37.935 132.237 37.677C132.369 37.419 132.435 37.11 132.435 36.75V34.275H133.074V39H132.462V37.704L132.561 37.938C132.411 38.286 132.177 38.559 131.859 38.757C131.547 38.949 131.181 39.045 130.761 39.045ZM134.855 39V32.322H135.494V39H134.855ZM138.792 39.045C138.348 39.045 138.006 38.925 137.766 38.685C137.526 38.445 137.406 38.106 137.406 37.668V33.231H138.045V37.632C138.045 37.908 138.114 38.121 138.252 38.271C138.396 38.421 138.6 38.496 138.864 38.496C139.146 38.496 139.38 38.415 139.566 38.253L139.791 38.712C139.665 38.826 139.512 38.91 139.332 38.964C139.158 39.018 138.978 39.045 138.792 39.045ZM136.56 34.806V34.275H139.485V34.806H136.56ZM140.954 39V34.275H141.566V35.562L141.503 35.337C141.635 34.977 141.857 34.704 142.169 34.518C142.481 34.326 142.868 34.23 143.33 34.23V34.851C143.306 34.851 143.282 34.851 143.258 34.851C143.234 34.845 143.21 34.842 143.186 34.842C142.688 34.842 142.298 34.995 142.016 35.301C141.734 35.601 141.593 36.03 141.593 36.588V39H140.954ZM144.735 40.791C144.513 40.791 144.3 40.755 144.096 40.683C143.898 40.611 143.727 40.503 143.583 40.359L143.88 39.882C144 39.996 144.129 40.083 144.267 40.143C144.411 40.209 144.57 40.242 144.744 40.242C144.954 40.242 145.134 40.182 145.284 40.062C145.44 39.948 145.587 39.744 145.725 39.45L146.031 38.757L146.103 38.658L148.047 34.275H148.677L146.31 39.567C146.178 39.873 146.031 40.116 145.869 40.296C145.713 40.476 145.542 40.602 145.356 40.674C145.17 40.752 144.963 40.791 144.735 40.791ZM145.995 39.135L143.817 34.275H144.483L146.409 38.613L145.995 39.135ZM157.836 34.23C158.22 34.23 158.553 34.305 158.835 34.455C159.123 34.599 159.345 34.821 159.501 35.121C159.663 35.421 159.744 35.799 159.744 36.255V39H159.105V36.318C159.105 35.82 158.985 35.445 158.745 35.193C158.511 34.935 158.178 34.806 157.746 34.806C157.422 34.806 157.14 34.875 156.9 35.013C156.666 35.145 156.483 35.34 156.351 35.598C156.225 35.85 156.162 36.156 156.162 36.516V39H155.523V36.318C155.523 35.82 155.403 35.445 155.163 35.193C154.923 34.935 154.587 34.806 154.155 34.806C153.837 34.806 153.558 34.875 153.318 35.013C153.078 35.145 152.892 35.34 152.76 35.598C152.634 35.85 152.571 36.156 152.571 36.516V39H151.932V34.275H152.544V35.553L152.445 35.328C152.589 34.986 152.82 34.719 153.138 34.527C153.462 34.329 153.843 34.23 154.281 34.23C154.743 34.23 155.136 34.347 155.46 34.581C155.784 34.809 155.994 35.154 156.09 35.616L155.838 35.517C155.976 35.133 156.219 34.824 156.567 34.59C156.921 34.35 157.344 34.23 157.836 34.23ZM164.438 39V37.956L164.411 37.785V36.039C164.411 35.637 164.297 35.328 164.069 35.112C163.847 34.896 163.514 34.788 163.07 34.788C162.764 34.788 162.473 34.839 162.197 34.941C161.921 35.043 161.687 35.178 161.495 35.346L161.207 34.869C161.447 34.665 161.735 34.509 162.071 34.401C162.407 34.287 162.761 34.23 163.133 34.23C163.745 34.23 164.216 34.383 164.546 34.689C164.882 34.989 165.05 35.448 165.05 36.066V39H164.438ZM162.809 39.045C162.455 39.045 162.146 38.988 161.882 38.874C161.624 38.754 161.426 38.592 161.288 38.388C161.15 38.178 161.081 37.938 161.081 37.668C161.081 37.422 161.138 37.2 161.252 37.002C161.372 36.798 161.564 36.636 161.828 36.516C162.098 36.39 162.458 36.327 162.908 36.327H164.537V36.804H162.926C162.47 36.804 162.152 36.885 161.972 37.047C161.798 37.209 161.711 37.41 161.711 37.65C161.711 37.92 161.816 38.136 162.026 38.298C162.236 38.46 162.53 38.541 162.908 38.541C163.268 38.541 163.577 38.46 163.835 38.298C164.099 38.13 164.291 37.89 164.411 37.578L164.555 38.019C164.435 38.331 164.225 38.58 163.925 38.766C163.631 38.952 163.259 39.045 162.809 39.045ZM168.055 39.045C167.665 39.045 167.296 38.991 166.948 38.883C166.6 38.769 166.327 38.628 166.129 38.46L166.417 37.956C166.609 38.1 166.855 38.226 167.155 38.334C167.455 38.436 167.77 38.487 168.1 38.487C168.55 38.487 168.874 38.418 169.072 38.28C169.27 38.136 169.369 37.947 169.369 37.713C169.369 37.539 169.312 37.404 169.198 37.308C169.09 37.206 168.946 37.131 168.766 37.083C168.586 37.029 168.385 36.984 168.163 36.948C167.941 36.912 167.719 36.87 167.497 36.822C167.281 36.774 167.083 36.705 166.903 36.615C166.723 36.519 166.576 36.39 166.462 36.228C166.354 36.066 166.3 35.85 166.3 35.58C166.3 35.322 166.372 35.091 166.516 34.887C166.66 34.683 166.87 34.524 167.146 34.41C167.428 34.29 167.77 34.23 168.172 34.23C168.478 34.23 168.784 34.272 169.09 34.356C169.396 34.434 169.648 34.539 169.846 34.671L169.567 35.184C169.357 35.04 169.132 34.938 168.892 34.878C168.652 34.812 168.412 34.779 168.172 34.779C167.746 34.779 167.431 34.854 167.227 35.004C167.029 35.148 166.93 35.334 166.93 35.562C166.93 35.742 166.984 35.883 167.092 35.985C167.206 36.087 167.353 36.168 167.533 36.228C167.719 36.282 167.92 36.327 168.136 36.363C168.358 36.399 168.577 36.444 168.793 36.498C169.015 36.546 169.216 36.615 169.396 36.705C169.582 36.789 169.729 36.912 169.837 37.074C169.951 37.23 170.008 37.437 170.008 37.695C170.008 37.971 169.93 38.211 169.774 38.415C169.624 38.613 169.402 38.769 169.108 38.883C168.82 38.991 168.469 39.045 168.055 39.045ZM173.592 34.23C173.976 34.23 174.312 34.305 174.6 34.455C174.894 34.599 175.122 34.821 175.284 35.121C175.452 35.421 175.536 35.799 175.536 36.255V39H174.897V36.318C174.897 35.82 174.771 35.445 174.519 35.193C174.273 34.935 173.925 34.806 173.475 34.806C173.139 34.806 172.845 34.875 172.593 35.013C172.347 35.145 172.155 35.34 172.017 35.598C171.885 35.85 171.819 36.156 171.819 36.516V39H171.18V32.322H171.819V35.571L171.693 35.328C171.843 34.986 172.083 34.719 172.413 34.527C172.743 34.329 173.136 34.23 173.592 34.23ZM177.262 39V34.275H177.901V39H177.262ZM177.586 33.231C177.454 33.231 177.343 33.186 177.253 33.096C177.163 33.006 177.118 32.898 177.118 32.772C177.118 32.646 177.163 32.541 177.253 32.457C177.343 32.367 177.454 32.322 177.586 32.322C177.718 32.322 177.829 32.364 177.919 32.448C178.009 32.532 178.054 32.637 178.054 32.763C178.054 32.895 178.009 33.006 177.919 33.096C177.835 33.186 177.724 33.231 177.586 33.231ZM182.091 34.23C182.475 34.23 182.811 34.305 183.099 34.455C183.393 34.599 183.621 34.821 183.783 35.121C183.951 35.421 184.035 35.799 184.035 36.255V39H183.396V36.318C183.396 35.82 183.27 35.445 183.018 35.193C182.772 34.935 182.424 34.806 181.974 34.806C181.638 34.806 181.344 34.875 181.092 35.013C180.846 35.145 180.654 35.34 180.516 35.598C180.384 35.85 180.318 36.156 180.318 36.516V39H179.679V34.275H180.291V35.571L180.192 35.328C180.342 34.986 180.582 34.719 180.912 34.527C181.242 34.329 181.635 34.23 182.091 34.23ZM187.768 39.045C187.276 39.045 186.844 38.943 186.472 38.739C186.1 38.529 185.809 38.244 185.599 37.884C185.389 37.518 185.284 37.101 185.284 36.633C185.284 36.165 185.383 35.751 185.581 35.391C185.785 35.031 186.061 34.749 186.409 34.545C186.763 34.335 187.159 34.23 187.597 34.23C188.041 34.23 188.434 34.332 188.776 34.536C189.124 34.734 189.397 35.016 189.595 35.382C189.793 35.742 189.892 36.159 189.892 36.633C189.892 36.663 189.889 36.696 189.883 36.732C189.883 36.762 189.883 36.795 189.883 36.831H185.77V36.354H189.541L189.289 36.543C189.289 36.201 189.214 35.898 189.064 35.634C188.92 35.364 188.722 35.154 188.47 35.004C188.218 34.854 187.927 34.779 187.597 34.779C187.273 34.779 186.982 34.854 186.724 35.004C186.466 35.154 186.265 35.364 186.121 35.634C185.977 35.904 185.905 36.213 185.905 36.561V36.66C185.905 37.02 185.983 37.338 186.139 37.614C186.301 37.884 186.523 38.097 186.805 38.253C187.093 38.403 187.42 38.478 187.786 38.478C188.074 38.478 188.341 38.427 188.587 38.325C188.839 38.223 189.055 38.067 189.235 37.857L189.595 38.271C189.385 38.523 189.121 38.715 188.803 38.847C188.491 38.979 188.146 39.045 187.768 39.045ZM191.193 39V34.275H191.805V35.562L191.742 35.337C191.874 34.977 192.096 34.704 192.408 34.518C192.72 34.326 193.107 34.23 193.569 34.23V34.851C193.545 34.851 193.521 34.851 193.497 34.851C193.473 34.845 193.449 34.842 193.425 34.842C192.927 34.842 192.537 34.995 192.255 35.301C191.973 35.601 191.832 36.03 191.832 36.588V39H191.193ZM194.973 40.791C194.751 40.791 194.538 40.755 194.334 40.683C194.136 40.611 193.965 40.503 193.821 40.359L194.118 39.882C194.238 39.996 194.367 40.083 194.505 40.143C194.649 40.209 194.808 40.242 194.982 40.242C195.192 40.242 195.372 40.182 195.522 40.062C195.678 39.948 195.825 39.744 195.963 39.45L196.269 38.757L196.341 38.658L198.285 34.275H198.915L196.548 39.567C196.416 39.873 196.269 40.116 196.107 40.296C195.951 40.476 195.78 40.602 195.594 40.674C195.408 40.752 195.201 40.791 194.973 40.791ZM196.233 39.135L194.055 34.275H194.721L196.647 38.613L196.233 39.135Z" fill="white"/>
</svg>
